<?xml version="1.0" standalone="no"?><!DOCTYPE svg PUBLIC "-//W3C//DTD SVG 1.1//EN" "http://www.w3.org/Graphics/SVG/1.1/DTD/svg11.dtd"><svg t="1749198821908" class="icon" viewBox="0 0 1024 1024" version="1.1" xmlns="http://www.w3.org/2000/svg" p-id="21246" width="256" height="256" xmlns:xlink="http://www.w3.org/1999/xlink"><path d="M0.09896 0H1023.58317v1023.58317H0.09896z" fill="#f8f3b2" p-id="21247" data-spm-anchor-id="a313x.search_index.0.i28.3c413a81UoKmEg" class="selected"></path><path d="M431.377332 612.604531v178.808185l78.930857 231.642669 80.970027-231.642669V612.604531z" fill="#FEE1B9" p-id="21248"></path><path d="M510.308189 612.604531v410.450854l80.970027-231.642669V612.604531z" fill="#FFD9AC" p-id="21249"></path><path d="M296.154398 453.803199c-2.717893-26.695129 11.815189-50.595396 32.461781-53.38526 20.647592-2.794862 39.581881 16.598241 42.305772 43.282374 2.721892 26.701127-11.832182 50.590398-32.456783 53.391258-20.65259 2.783866-39.586879-16.604238-42.31077-43.288372" fill="#FEE1B9" p-id="21250"></path><path d="M683.936483 497.19153c-20.581619-2.297065-34.466964-25.850473-30.987381-52.600579 3.445597-26.773097 22.928663-46.635009 43.503284-44.359936 20.563626 2.281071 34.438976 25.822484 30.970388 52.595582-3.451594 26.7661-22.928663 46.629011-43.486291 44.364933" fill="#FFD9AC" p-id="21251"></path><path d="M511.894543 229.188668s-169.798853 7.346009-169.798853 97.905131v184.463881c0 35.65548 57.643526 137.541989 109.630355 141.779264 25.994414 2.121136 60.168498 5.042946 60.168498 5.042946s34.163088-2.92181 60.167498-5.042946c51.970836-4.237274 109.052591-106.123784 109.052591-141.779264V332.135746c0-90.558122-169.220089-102.947077-169.220089-102.947078" fill="#FEE1B9" p-id="21252"></path><path d="M511.894543 229.188668s-169.798853 7.346009-169.798853 97.905131v184.463881c0 35.65548 57.643526 137.541989 109.630355 141.779264 25.994414 2.121136 60.168498 5.042946 60.168498 5.042946s34.163088-2.92181 60.167498-5.042946c51.970836-4.237274 109.052591-106.123784 109.052591-141.779264V332.135746c0-90.558122-169.220089-102.947077-169.220089-102.947078" fill="#FEE1B9" p-id="21253"></path><path d="M681.113632 332.135746v179.420935c0 35.65548-57.643526 137.541989-109.626357 141.779263-25.993415 2.121136-60.1625 5.042946-60.1625 5.042947V229.187669s169.788857 12.389954 169.788857 102.948077" fill="#FFD9AC" p-id="21254"></path><path d="M511.894543 1023.055385V737.923498s-60.841224-15.072862-74.269755-64.359791c-6.423384-23.679357-6.247456-18.443489-6.247456 5.932584 0 73.247172-172.527742 41.736004-219.223727 98.334955-36.787019 50.927261-62.25065 245.224138-62.250649 245.224139h361.991587z" fill="#FEE1B9" p-id="21255"></path><path d="M511.324775 1023.055385V722.999575s57.975391-1.15453 69.110856-29.26908c4.031358-10.180854 10.842585-38.057502 10.842585-13.688426 0 73.254169 173.080517 41.190226 219.776501 97.789177 36.787019 50.927261 62.255648 245.224138 62.255648 245.224139H511.324775z" fill="#FFD9AC" p-id="21256"></path><path d="M410.199956 713.01864s-167.650728 22.137985-204.608678 68.508102c-29.970795 37.582695-50.568407 198.671096-60.190489 242.472258h366.487756V740.509445l-101.688589-27.490805z" fill="#D0D4D7" p-id="21257"></path><path d="M613.582133 713.01864s168.584348 22.668769 205.547296 69.037886c29.971795 37.583695 49.634787 198.141312 59.251871 241.942474H511.899541V740.509445l101.682592-27.490805z" fill="#B9C7D0" p-id="21258"></path><path d="M511.324775 929.762376l0.56377-199.709673-103.561826-21.210362 103.561826 315.157659" fill="#D0D4D7" p-id="21259"></path><path d="M523.593779 789.110653l23.408467-23.579398-35.107703-35.395586-35.108703 35.395586 23.408468 23.585396-31.892013 172.477762 43.585251 62.405587 43.741187-62.405587z" fill="#436B85" p-id="21260"></path><path d="M547.002246 765.530256l-35.107703-35.393587-0.569768 0.567769v292.48889l0.56377 0.805672 43.740188-62.404587-32.035954-172.48376z" fill="#315D76" p-id="21261"></path><path d="M511.888545 730.063699l83.096161-42.01789 42.828559 24.972831-69.866548 99.760375z" fill="#D0D4D7" p-id="21262"></path><path d="M511.898541 730.063699l-83.095161-42.01789-42.846552 24.972831 84.410626 99.760375zM509.71743 598.111433c22.723746 0 41.140247-16.2064 41.140246-36.19526h-82.279493c0 19.98986 18.415501 36.19526 41.139247 36.19526" fill="#FFFFFF" p-id="21263"></path><path d="M606.727924 464.800721c0-7.80982-6.324425-14.140242-14.134244-14.140242-7.810819 0-14.146239 6.330422-14.146239 14.140242 0 7.810819 6.33542 14.140242 14.146239 14.140242 7.80882 0 14.134244-6.329422 14.134244-14.140242M442.402842 459.156019c0-7.810819-6.33642-14.140242-14.146239-14.140241s-14.134244 6.329422-14.134245 14.140241c0 7.798824 6.324425 14.129246 14.134245 14.129247s14.146239-6.330422 14.146239-14.129247" fill="#726658" p-id="21264"></path><path d="M456.928926 432.266969a2.812855 2.812855 0 0 1-2.270075-1.137536c-5.047944-6.799231-15.156828-11.02551-26.39725-11.02551-11.240423 0-21.348306 4.226279-26.396251 11.02551-0.917626 1.25349-2.695902 1.513384-3.95539 0.584762a2.833846 2.833846 0 0 1-0.585761-3.95439c6.087521-8.208657 17.940694-13.311579 30.937402-13.311579s24.85088 5.102922 30.937401 13.311579a2.834846 2.834846 0 0 1-0.584762 3.95439c-0.508793 0.375847-1.099552 0.552775-1.685314 0.552774M621.591871 432.266969c-0.861649 0-1.7193-0.39184-2.270075-1.137536-5.042946-6.799231-15.156828-11.02551-26.397251-11.02551-11.234425 0-21.347307 4.226279-26.390253 11.02551-0.922624 1.25349-2.695902 1.513384-3.955389 0.584762a2.828848 2.828848 0 0 1-0.584762-3.95439c6.086521-8.208657 17.940694-13.311579 30.930404-13.311579 12.997707 0 24.85088 5.102922 30.937402 13.311579a2.82285 2.82285 0 0 1-2.270076 4.507164M325.66738 436.575215h16.228391l21.63519-150.792593s-49.3579-19.316134-59.493773 39.87976C293.89032 384.858275 325.66738 436.575215 325.66738 436.575215M689.122371 436.575215h-16.222394l-21.636189-150.792593s49.3589-19.316134 59.488775 39.87976c10.151866 59.195894-21.630192 110.912833-21.630192 110.912833" fill="#61402F" p-id="21265"></path><path d="M344.822579 300.850486s69.121852 53.65515 164.82288 53.65515c95.712024 0 186.176184-29.63893 227.299437-110.266097-2.242087 0.690719-73.303149-12.279-162.303905-80.157358-112.178318-85.560158-322.525659 41.664033-229.818412 136.768305" fill="#61402F" p-id="21266"></path></svg>