<svg t="1764321153466" class="icon" viewBox="0 0 1024 1024" version="1.1" xmlns="http://www.w3.org/2000/svg" p-id="11332" width="256" height="256"><path d="M859.859128 62.037938 163.077657 62.037938c-54.776557 0-99.540064 44.89142-99.540064 99.714026l0 698.001251c0 54.822606 44.76453 99.713003 99.540064 99.713003l696.78147 0c54.775534 0 99.539041-44.890396 99.539041-99.713003L959.398168 161.751964C959.399191 106.928335 914.635685 62.037938 859.859128 62.037938zM760.319064 560.608068 561.238936 560.608068l0 199.430098L461.698872 760.038166 461.698872 560.608068 262.617721 560.608068l0-99.714026L461.698872 460.894042 461.698872 261.46599l99.540064 0 0 199.428052 199.080128 0L760.319064 560.608068z" p-id="11333" fill="#4fc872"></path></svg>