<svg width="20" height="20" viewBox="0 0 20 20" fill="none" xmlns="http://www.w3.org/2000/svg">
<path d="M10 2C5.5824 2 2 5.5824 2 10C2 14.4176 5.5824 18 10 18C14.4176 18 18 14.4176 18 10C18 5.5824 14.4176 2 10 2ZM10.3984 13.8784L10.4016 14.4448C10.4016 14.5232 10.3376 14.5888 10.2592 14.5888H9.752C9.71422 14.5886 9.67804 14.5735 9.65125 14.5469C9.62447 14.5203 9.60922 14.4842 9.6088 14.4464V13.8864C8.0232 13.768 7.2768 12.864 7.1968 11.8824C7.19514 11.8627 7.19759 11.8428 7.20399 11.8241C7.21039 11.8054 7.2206 11.7882 7.23398 11.7736C7.24736 11.759 7.26362 11.7474 7.28173 11.7394C7.29984 11.7314 7.31941 11.7272 7.3392 11.7272H8.164C8.2336 11.7272 8.2944 11.7768 8.3056 11.8448C8.3968 12.4104 8.8376 12.8336 9.6288 12.9392V10.392L9.1872 10.28C8.2536 10.056 7.364 9.4744 7.364 8.2672C7.364 6.9648 8.3536 6.2648 9.6176 6.1416V5.552C9.61781 5.51409 9.63296 5.47778 9.65977 5.45097C9.68658 5.42416 9.72289 5.40901 9.7608 5.4088H10.2624C10.3003 5.40901 10.3366 5.42416 10.3634 5.45097C10.3902 5.47778 10.4054 5.51409 10.4056 5.552V6.136C11.6288 6.2592 12.5464 6.9736 12.6536 8.0856C12.6557 8.1056 12.6536 8.12584 12.6474 8.14496C12.6412 8.16409 12.6309 8.18168 12.6174 8.19657C12.6039 8.21146 12.5873 8.22332 12.5689 8.23135C12.5505 8.23939 12.5305 8.24343 12.5104 8.2432H11.7088C11.6744 8.24313 11.6412 8.23061 11.6153 8.20797C11.5894 8.18532 11.5726 8.15408 11.568 8.12C11.496 7.5984 11.0784 7.1736 10.3984 7.08V9.4784L10.852 9.584C12.0088 9.8696 12.796 10.4232 12.796 11.6624C12.796 13.0064 11.796 13.7568 10.3984 13.8784ZM8.4752 8.184C8.4752 8.6376 8.7552 8.9896 9.3592 9.2072C9.4432 9.2408 9.5272 9.268 9.6264 9.2968V7.0824C8.968 7.1664 8.4744 7.536 8.4744 8.184H8.4752ZM10.5552 10.5984C10.5025 10.5868 10.4502 10.5734 10.3984 10.5584V12.9464C11.1584 12.8784 11.684 12.4608 11.684 11.7608C11.684 11.2128 11.4 10.8552 10.556 10.5984H10.5552Z" fill="currentColor"/>
</svg>
