<svg width="20" height="20" viewBox="0 0 20 20" fill="none" xmlns="http://www.w3.org/2000/svg">
<path d="M10 18.3984C5.36914 18.3984 1.60156 14.6311 1.60156 10C1.60156 5.36914 5.36914 1.60156 10 1.60156C14.6311 1.60156 18.3984 5.36914 18.3984 10C18.3984 14.6311 14.6311 18.3984 10 18.3984ZM10 2.77344C6.01523 2.77344 2.77344 6.01523 2.77344 10C2.77344 13.9848 6.01523 17.2266 10 17.2266C13.9848 17.2266 17.2266 13.9848 17.2266 10C17.2266 6.01523 13.9848 2.77344 10 2.77344Z" fill="currentColor"/>
<path d="M10 10.5773C8.89727 10.5773 8 9.67988 8 8.57715C8 7.47441 8.89727 6.57715 10 6.57715C11.1027 6.57715 12 7.47441 12 8.57715C12 8.90078 11.7375 9.16309 11.4141 9.16309C11.0906 9.16309 10.8281 8.90078 10.8281 8.57715C10.8281 8.12051 10.4566 7.74902 10 7.74902C9.54336 7.74902 9.17188 8.12051 9.17188 8.57715C9.17188 9.03379 9.54336 9.40527 10 9.40527C10.3236 9.40527 10.5859 9.66758 10.5859 9.99121C10.5859 10.3148 10.3236 10.5773 10 10.5773Z" fill="currentColor"/>
<path d="M9.94414 13.2937C8.87227 13.2937 8 12.4213 8 11.3494C8 11.026 8.2623 10.7635 8.58594 10.7635C8.90957 10.7635 9.17188 11.026 9.17188 11.3494C9.17188 11.7756 9.51816 12.1219 9.94414 12.1219C10.3701 12.1219 10.7164 11.7756 10.7164 11.3494C10.7164 10.9236 10.3701 10.5773 9.94414 10.5773C9.62051 10.5773 9.3582 10.3148 9.3582 9.99121C9.3582 9.66758 9.62051 9.40527 9.94414 9.40527C11.0162 9.40527 11.8883 10.2775 11.8883 11.3494C11.8883 12.4213 11.0162 13.2937 9.94414 13.2937ZM9.94414 7.74902C9.62051 7.74902 9.3582 7.48672 9.3582 7.16309V6.38184C9.3582 6.0582 9.62051 5.7959 9.94414 5.7959C10.2678 5.7959 10.5303 6.0582 10.5303 6.38184V7.16309C10.5303 7.48672 10.2678 7.74902 9.94414 7.74902Z" fill="currentColor"/>
<path d="M10 14.2041C9.67637 14.2041 9.41406 13.9416 9.41406 13.6182V12.8369C9.41406 12.5135 9.67637 12.251 10 12.251C10.3236 12.251 10.5859 12.5135 10.5859 12.8369V13.6182C10.5859 13.9418 10.3236 14.2041 10 14.2041Z" fill="currentColor"/>
</svg>
