<svg width="20" height="20" viewBox="0 0 20 20" fill="none" xmlns="http://www.w3.org/2000/svg">
<path d="M18.383 15.1142C18.3595 14.9946 18.3015 14.8805 18.2088 14.7879L12.8861 9.48409C13.1019 8.93542 13.2397 8.34758 13.2858 7.73416C13.2955 7.69005 13.3008 7.64428 13.3008 7.59727L13.2968 7.555C13.301 7.46248 13.3032 7.36944 13.3032 7.27587C13.3032 3.94139 10.6 1.23828 7.26547 1.23828C6.40562 1.23828 5.58795 1.41836 4.84763 1.74238C4.72142 1.75963 4.59946 1.81487 4.50003 1.90799C4.42904 1.94462 4.35878 1.9825 4.28947 2.02183L4.3622 2.09456C4.24726 2.33138 4.28795 2.6247 4.48464 2.82141L7.33391 5.6884L5.69666 7.33839L2.84097 4.46511C2.63459 4.25845 2.32125 4.22396 2.07875 4.36128L2.0121 4.29887C1.9703 4.37246 1.93015 4.44709 1.89142 4.52255C1.83388 4.59576 1.79456 4.67861 1.77374 4.76505C1.42355 5.52965 1.22803 6.37986 1.22803 7.27587C1.22803 10.6104 3.93095 13.3135 7.26547 13.3135C8.02916 13.3135 8.75958 13.1714 9.43211 12.9127L14.2966 17.7599C14.4236 17.9233 14.571 18.0701 14.7349 18.1967L14.7675 18.2291C14.8381 18.2998 14.9211 18.3502 15.0096 18.3807C15.3678 18.5868 15.7832 18.7047 16.2262 18.7047C17.5753 18.7047 18.6691 17.611 18.6691 16.2619C18.6691 15.847 18.5655 15.4564 18.383 15.1142ZM16.2275 17.4503C16.0045 17.4503 15.7959 17.3887 15.6176 17.2818L15.2105 16.8761C15.1946 16.8498 15.1798 16.8228 15.166 16.7952L13.895 15.5313C13.8922 15.5399 13.8893 15.5484 13.8867 15.5571L10.6166 12.2985C10.6185 12.2973 10.6204 12.2961 10.6223 12.2948L9.70278 11.3753C8.98529 11.8039 8.14646 12.0505 7.24994 12.0505C4.60444 12.0505 2.45953 9.9057 2.45953 7.2602C2.45953 6.83918 2.51394 6.4309 2.61599 6.0419L5.11095 8.55238C5.1281 8.56953 5.14605 8.58538 5.16458 8.60015C5.18708 8.63353 5.21301 8.66531 5.24255 8.69483C5.49084 8.94312 5.89304 8.94312 6.14134 8.69483L8.67452 6.14214C8.92281 5.89386 8.92281 5.49148 8.67452 5.24319C8.65881 5.22748 8.64246 5.21279 8.62561 5.19906C8.60417 5.1681 8.57982 5.13854 8.55226 5.11098L6.07254 2.61599C6.44925 2.52069 6.84364 2.46983 7.24996 2.46983C9.89549 2.46983 12.0401 4.61459 12.0401 7.26024C12.0401 7.30937 12.0391 7.35823 12.0376 7.407C12.0287 7.44939 12.0239 7.4933 12.0239 7.53833L12.0287 7.58882C11.9941 8.09853 11.8799 8.5864 11.6983 9.04001L11.7778 9.09474C11.7426 9.118 11.7092 9.14512 11.6782 9.17612C11.4299 9.42441 11.4299 9.8268 11.6782 10.0751L14.7157 13.1017L14.721 13.096L15.2805 13.6645L15.5353 13.9184C15.5341 13.9188 15.5328 13.9192 15.5316 13.9196L16.834 15.2429C16.8648 15.2613 16.8948 15.2809 16.9238 15.3019L17.1864 15.5635C17.3298 15.7598 17.4146 16.0015 17.4146 16.2631C17.4146 16.9186 16.883 17.4503 16.2275 17.4503Z" fill="currentColor"/>
</svg>
