<svg width="20" height="20" viewBox="0 0 20 20" fill="none" xmlns="http://www.w3.org/2000/svg">
<path d="M4.8335 1.5H5.3335L6.3335 7.5H5.8335L4.8335 1.5ZM14.8918 1.5H15.3918L14.5002 7.53333H14.0002L14.8918 1.5Z" fill="#96CAFF"/>
<path d="M5.37485 8H6.33318L5.01818 1H4.49985L5.37485 8ZM4.49985 0.5H5.01818C5.13491 0.499967 5.24797 0.540777 5.33777 0.615356C5.42757 0.689934 5.48844 0.793582 5.50985 0.908333L6.82318 7.90833C6.83662 7.98039 6.83405 8.05452 6.81565 8.12547C6.79726 8.19642 6.76349 8.26247 6.71674 8.31892C6.66999 8.37537 6.6114 8.42085 6.54511 8.45215C6.47883 8.48344 6.40648 8.49978 6.33318 8.5H5.37485C5.25226 8.50094 5.1336 8.4568 5.04142 8.37599C4.94924 8.29518 4.88996 8.18332 4.87485 8.06167L3.99985 1.06167C3.99123 0.995928 3.99577 0.929132 4.01321 0.865166C4.03065 0.8012 4.06064 0.741341 4.10143 0.689074C4.14222 0.636806 4.193 0.593172 4.25081 0.560712C4.30863 0.528253 4.37232 0.507615 4.43818 0.5H4.49985ZM15.3332 1L14.4565 8H13.4998L14.8132 1H15.3332ZM15.3332 0.5H14.8132C14.6964 0.499967 14.5834 0.540777 14.4936 0.615355C14.4038 0.689934 14.3429 0.793582 14.3215 0.908333L13.0098 7.90833C12.9964 7.98039 12.999 8.05452 13.0174 8.12547C13.0358 8.19642 13.0695 8.26247 13.1163 8.31892C13.163 8.37537 13.2216 8.42085 13.2879 8.45215C13.3542 8.48344 13.4265 8.49978 13.4998 8.5H14.4565C14.5791 8.50094 14.6978 8.4568 14.7899 8.37599C14.8821 8.29518 14.9414 8.18332 14.9565 8.06167L15.8332 1.06167C15.8418 0.995803 15.8372 0.928883 15.8196 0.864818C15.8021 0.800753 15.772 0.740825 15.731 0.688535C15.69 0.636246 15.6391 0.592642 15.5811 0.560271C15.5231 0.5279 15.4592 0.507411 15.3932 0.5H15.3332Z" fill="#175AA7"/>
<path d="M1.16667 13H19.3333C19.3775 13 19.4199 13.0176 19.4512 13.0488C19.4824 13.0801 19.5 13.1225 19.5 13.1667V16.3333C19.5 16.3775 19.4824 16.4199 19.4512 16.4512C19.4199 16.4824 19.3775 16.5 19.3333 16.5H1.16667C1.12246 16.5 1.08007 16.4824 1.04882 16.4512C1.01756 16.4199 1 16.3775 1 16.3333V13.1667C1 13.1225 1.01756 13.0801 1.04882 13.0488C1.08007 13.0176 1.12246 13 1.16667 13Z" fill="#96CAFF"/>
<path d="M9 15H9.5V14.5H9V15ZM8.5 14H10V15.5H8.5V14ZM14 15H14.5V14.5H14V15ZM13.5 14H15V15.5H13.5V14ZM11.5 15H12V14.5H11.5V15ZM11 14H12.5V15.5H11V14ZM16.5 15H17V14.5H16.5V15ZM16 14H17.5V15.5H16V14Z" fill="#175AA7"/>
<path d="M3 16.5H4.34167L3.84167 18H3.5L3 16.5Z" fill="#96CAFF"/>
<path d="M3.97333 16.5H4.14L4.38667 16.8417L4.33333 17H3.80667L3.97333 16.5ZM2.52667 16.5H2.36L2.11333 16.8417L2.16667 17H2.69333L2.52667 16.5ZM2.86 17.5H3.64L3.80667 17H2.69333L2.86 17.5ZM2 16.5H4.5L4 18H2.5L2 16.5Z" fill="#175AA7"/>
<path d="M16.5 16.5H17.8417L17.3417 18H17L16.5 16.5Z" fill="#96CAFF"/>
<path d="M17.8333 17L17.8867 16.8417L17.64 16.5H17.4733L17.3067 17H17.8333ZM16.0267 16.5H15.86L15.6133 16.8417L15.6667 17H16.1933L16.0267 16.5ZM16.36 17.5H17.14L17.3067 17H16.1933L16.36 17.5ZM15.5 16.5H18L17.5 18H16L15.5 16.5ZM4 15H4.5V15.5H4V15ZM5.5 15H6V15.5H5.5V15ZM2.5 15H3V15.5H2.5V15ZM7 15H7.5V15.5H7V15ZM4 14H4.5V14.5H4V14ZM5.5 14H6V14.5H5.5V14ZM2.5 14H3V14.5H2.5V14ZM7 14H7.5V14.5H7V14Z" fill="#175AA7"/>
<path d="M1.3501 12.5L4.7901 7.61833C4.92888 7.42731 5.11081 7.27174 5.32107 7.16429C5.53132 7.05685 5.76398 7.00056 6.0001 7H14.6251C14.8609 7.00082 15.0933 7.05724 15.3032 7.16467C15.5132 7.27211 15.6948 7.42753 15.8334 7.61833L19.2584 12.5" fill="#B3D9FF"/>
<path d="M14.5 7L18.1533 12.0117H19.285L15.7283 7H14.5Z" fill="#96CAFF"/>
<path d="M1 12.5C0.867392 12.5 0.740215 12.5527 0.646447 12.6464C0.552678 12.7402 0.5 12.8674 0.5 13V16C0.5 16.1326 0.552678 16.2598 0.646447 16.3536C0.740215 16.4473 0.867392 16.5 1 16.5H19C19.1326 16.5 19.2598 16.4473 19.3536 16.3536C19.4473 16.2598 19.5 16.1326 19.5 16V13C19.5 12.8674 19.4473 12.7402 19.3536 12.6464C19.2598 12.5527 19.1326 12.5 19 12.5H1ZM1 12H19C19.2652 12 19.5196 12.1054 19.7071 12.2929C19.8946 12.4804 20 12.7348 20 13V16C20 16.2652 19.8946 16.5196 19.7071 16.7071C19.5196 16.8946 19.2652 17 19 17H1C0.734784 17 0.48043 16.8946 0.292893 16.7071C0.105357 16.5196 0 16.2652 0 16L0 13C0 12.7348 0.105357 12.4804 0.292893 12.2929C0.48043 12.1054 0.734784 12 1 12Z" fill="#175AA7"/>
<path d="M3.2801 8.825L3.63676 8.33333L3.9451 7.91C4.03803 7.78283 4.15968 7.67941 4.30015 7.60816C4.44061 7.53691 4.59593 7.49985 4.75343 7.5H15.2251C15.3827 7.50005 15.5381 7.53736 15.6786 7.6089C15.8191 7.68045 15.9407 7.78419 16.0334 7.91167L19.2468 12.5H19.8568L16.4384 7.61833C16.2993 7.42685 16.1169 7.27101 15.906 7.16354C15.6951 7.05607 15.4618 7.00003 15.2251 7H4.75343C4.51675 7.00003 4.28343 7.05607 4.07255 7.16354C3.86167 7.27101 3.67922 7.42685 3.5401 7.61833L2.87343 8.53833L0.100098 12.5H0.710098L3.2801 8.825Z" fill="#175AA7"/>
</svg>
