<?xml version="1.0" standalone="no"?><!DOCTYPE svg PUBLIC "-//W3C//DTD SVG 1.1//EN" "http://www.w3.org/Graphics/SVG/1.1/DTD/svg11.dtd"><svg t="1745234000368" class="icon" viewBox="0 0 1024 1024" version="1.1" xmlns="http://www.w3.org/2000/svg" p-id="19338" xmlns:xlink="http://www.w3.org/1999/xlink" width="200" height="200"><path d="M763.456 64h9.088a32 32 0 0 1 32 32v341.248H731.52V96a32 32 0 0 1 32-32z m-256 0h9.088a32 32 0 0 1 32 32v341.248H475.52V96a32 32 0 0 1 32-32z m-256 0h9.088a32 32 0 0 1 32 32v341.248H219.52V96a32 32 0 0 1 32-32zM1024 661.376V896a64 64 0 0 1-64 64H64a64 64 0 0 1-64-64v-234.624h1024z m-438.848 112a36.928 36.928 0 0 0-36.608 37.312c0 20.608 16.384 37.312 36.608 37.312a36.928 36.928 0 0 0 36.544-37.312 36.928 36.928 0 0 0-36.544-37.312z m-147.072 0H147.072a37.312 37.312 0 1 0 0 74.624h291.008a37.312 37.312 0 0 0 0-74.624z m293.376 0a36.928 36.928 0 0 0-36.608 37.312c0 20.608 16.384 37.312 36.608 37.312a36.928 36.928 0 0 0 36.544-37.312 36.928 36.928 0 0 0-36.544-37.312z m146.24 0a36.928 36.928 0 0 0-36.544 37.312c0 20.608 16.384 37.312 36.544 37.312a36.928 36.928 0 0 0 36.608-37.312 36.928 36.928 0 0 0-36.608-37.312z" fill="" p-id="19339"></path><path d="M180.928 437.44h662.144a64 64 0 0 1 53.568 28.992L1024 661.376H0l127.36-194.944a64 64 0 0 1 53.568-28.992z" fill="" opacity=".396" p-id="19340"></path></svg>