<svg width="20" height="20" viewBox="0 0 20 20" fill="none" xmlns="http://www.w3.org/2000/svg">
<path d="M19.5832 13.7456C19.8122 13.7456 20 13.5597 20 13.3288C20 13.0998 19.8141 12.912 19.5832 12.912H17.9178V12.4951H18.3347C18.5636 12.4951 18.7515 12.3092 18.7515 12.0783C18.7515 11.8493 18.5656 11.6615 18.3347 11.6615H17.9178V8.33464H19.5832C19.8122 8.33464 20 8.14873 20 7.91781C20 7.68885 19.8141 7.50098 19.5832 7.50098H17.9178V6.25244C17.9178 5.79256 17.546 5.42074 17.0861 5.42074H15.0039V3.75537C15.0039 3.06652 14.4442 2.50684 13.7554 2.50684H6.26417C5.57532 2.50684 5.01563 3.06652 5.01563 3.75537V5.42074H2.93343C2.47355 5.42074 2.10173 5.79256 2.10173 6.25244V7.50098H1.6849C1.45593 7.50098 1.26807 7.68689 1.26807 7.91781C1.26807 8.14677 1.45398 8.33464 1.6849 8.33464H2.10173V9.20157L1.44028 9.25637C1.34439 9.26419 1.27002 9.34443 1.27002 9.44228V9.72408C1.27002 9.81997 1.34439 9.90216 1.44028 9.90999L2.10173 9.96478V11.6654H1.6849C1.45593 11.6654 1.26807 11.8513 1.26807 12.0822C1.26807 12.3112 1.45398 12.499 1.6849 12.499H2.10173V12.9159H0.436362C0.207399 12.9159 0.0195312 13.1018 0.0195312 13.3327C0.0195312 13.5617 0.205442 13.7495 0.436362 13.7495H2.10173V14.1664H1.6849C1.45593 14.1664 1.26807 14.3523 1.26807 14.5832C1.26807 14.8122 1.45398 15 1.6849 15H2.10173V15.411H0.436362C0.205442 15.411 0.0195312 15.5969 0.0195312 15.8278C0.0195312 16.0568 0.205442 16.2446 0.436362 16.2446H2.10173V16.6615C2.10173 17.1214 2.47355 17.4932 2.93343 17.4932H17.0861C17.546 17.4932 17.9178 17.1214 17.9178 16.6615V16.2446H19.5832C19.8122 16.2446 20 16.0587 20 15.8278C20 15.5989 19.8141 15.411 19.5832 15.411H17.9178V14.9942H18.3347C18.5636 14.9942 18.7515 14.8082 18.7515 14.5773C18.7515 14.3484 18.5656 14.1605 18.3347 14.1605H17.9178V13.7437H19.5832V13.7456ZM7.09392 4.78277V5.4227H5.84734V3.75733C5.84734 3.52837 6.03325 3.3405 6.26417 3.3405H8.34441V4.01173H7.86691C7.43834 4.00978 7.09392 4.3542 7.09392 4.78277ZM10.9217 4.78277V5.4227H7.92758V4.84344H8.40507C8.83365 4.84344 9.17807 4.50097 9.17807 4.0724V3.34833V3.3405H12.1722V4.01173H11.6947C11.2661 4.00978 10.9217 4.3542 10.9217 4.78277ZM14.1722 5.42074H11.7554V4.84344H12.2309C12.6595 4.84344 13.0039 4.50097 13.0039 4.0724V3.34833V3.3405H13.7554C13.9843 3.3405 14.1722 3.52641 14.1722 3.75733V5.42074Z" fill="#FAC515"/>
<path d="M5.01563 14.9961C5.24459 14.9961 5.43246 14.8102 5.43246 14.5793C5.43246 14.3503 5.24655 14.1624 5.01563 14.1624C4.78667 14.1624 4.5988 14.3484 4.5988 14.5793C4.5988 14.8082 4.78471 14.9961 5.01563 14.9961ZM5.01563 15.8278C5.70448 15.8278 6.26417 15.2681 6.26417 14.5793C6.26417 13.8904 5.70448 13.3307 5.01563 13.3307C4.32678 13.3307 3.76709 13.8904 3.76709 14.5793C3.76514 15.2681 4.32483 15.8278 5.01563 15.8278ZM14.589 10C15.0489 10 15.4207 9.62818 15.4207 9.1683C15.4207 8.70842 15.0489 8.3366 14.589 8.3366C14.1292 8.3366 13.7573 8.70842 13.7573 9.1683C13.7573 9.62818 14.1292 10 14.589 10ZM14.589 10.8317C15.5088 10.8317 16.2544 10.0861 16.2544 9.16634C16.2544 8.24658 15.5088 7.50098 14.589 7.50098C13.6693 7.50098 12.9237 8.24658 12.9237 9.16634C12.9237 10.0861 13.6693 10.8317 14.589 10.8317Z" fill="white"/>
</svg>
