<?xml version="1.0" standalone="no"?><!DOCTYPE svg PUBLIC "-//W3C//DTD SVG 1.1//EN" "http://www.w3.org/Graphics/SVG/1.1/DTD/svg11.dtd"><svg t="1745230671012" class="icon" viewBox="0 0 1024 1024" version="1.1" xmlns="http://www.w3.org/2000/svg" p-id="11114" xmlns:xlink="http://www.w3.org/1999/xlink" width="200" height="200"><path d="M912 231H112c-26.4 0-48 20.403-48 45.341v574.318C64 875.597 85.6 896 112 896h800c26.4 0 48-20.403 48-45.341V276.341C960 251.403 938.4 231 912 231zM460.765 472.189H144.55v-69.87h316.215v69.87z m416.872 219.782c-24.355 42.316-60.731 65.621-102.427 65.621-33.603 0-60.016-11.716-88.312-39.173-15.769-15.088-26.111-21.82-45.65-21.82-18.792 0-36.479 12.565-48.525 34.474-3.604 6.554-11.376 9.038-17.796 5.685l-30.15-15.741c-3.435-1.792-6-5.035-7.067-8.932-1.068-3.897-0.54-8.091 1.454-11.556 24.355-42.316 60.731-65.622 102.427-65.622 33.602 0 60.015 11.715 88.307 39.169 15.772 15.092 26.113 21.825 45.655 21.825 18.792 0 36.478-12.565 48.526-34.474 3.603-6.555 11.373-9.038 17.795-5.685l30.15 15.741c3.435 1.792 5.999 5.035 7.067 8.932s0.54 8.092-1.454 11.556zM383.5 183.583v-64.75c0-13.2-10.8-24-24-24H216c-13.2 0-24 10.8-24 24v64.75h191.5z m447.067 1.167V120c0-13.2-10.8-24-24-24h-143.5c-13.2 0-24 10.8-24 24v64.75h191.5z" fill="#FAC515" p-id="11115"></path></svg>