<svg width="20" height="20" viewBox="0 0 20 20" fill="none" xmlns="http://www.w3.org/2000/svg">
<path d="M12.8709 1.2627H7.15479C6.65859 1.2627 6.25635 1.66354 6.25635 2.15803V4.11736C6.25635 4.61184 6.65859 5.0127 7.15479 5.0127H12.8709C13.3671 5.0127 13.7694 4.61186 13.7694 4.11736V2.15803C13.7694 1.66354 13.3671 1.2627 12.8709 1.2627ZM12.5064 3.75617H7.49334V2.49314H12.5064V3.75617Z" fill="currentColor"/>
<path d="M15.5713 2.49023H15V3.74023H15.6006C15.9673 3.74023 16.2646 4.03754 16.2646 4.4043V16.8262C16.2646 17.1929 15.9673 17.4902 15.6006 17.4902H4.44824C4.08148 17.4902 3.78418 17.1929 3.78418 16.8262V4.4043C3.78418 4.03754 4.08148 3.74023 4.44824 3.74023H5.01953V2.49023H4.47754C3.39885 2.49023 2.52441 3.36467 2.52441 4.44336V16.7871C2.52441 17.8658 3.39885 18.7402 4.47754 18.7402H15.5713C16.65 18.7402 17.5244 17.8658 17.5244 16.7871V4.44336C17.5244 3.36467 16.65 2.49023 15.5713 2.49023Z" fill="currentColor"/>
<path d="M15 7.46094C15 7.81691 14.7114 8.10547 14.3555 8.10547H5.64453C5.28855 8.10547 5 7.81691 5 7.46094C5 7.10496 5.28855 6.81641 5.64453 6.81641H14.3555C14.7114 6.81641 15 7.10496 15 7.46094ZM15 10.6706C15 11.0265 14.7114 11.3151 14.3555 11.3151H5.64453C5.28855 11.3151 5 11.0265 5 10.6706C5 10.3146 5.28855 10.026 5.64453 10.026H14.3555C14.7114 10.026 15 10.3146 15 10.6706ZM15 13.7891C15 14.145 14.7114 14.4336 14.3555 14.4336H5.64453C5.28855 14.4336 5 14.145 5 13.7891C5 13.4331 5.28855 13.1445 5.64453 13.1445H14.3555C14.7114 13.1445 15 13.4331 15 13.7891Z" fill="currentColor"/>
</svg>
