<svg width="20" height="20" viewBox="0 0 20 20" fill="none" xmlns="http://www.w3.org/2000/svg">
<path d="M10.494 6.92773H4.9583C4.60557 6.92773 4.31982 6.6418 4.31982 6.28906C4.31982 5.93633 4.60576 5.65059 4.9583 5.65039H10.494C10.8468 5.65 11.1329 5.93574 11.1333 6.28828C11.1337 6.64102 10.8481 6.92715 10.4954 6.92754H10.494V6.92773ZM8.22256 10.335H4.9583C4.6165 10.3195 4.34717 10.0379 4.34717 9.6957C4.34717 9.35352 4.61631 9.07187 4.9583 9.05645H8.22393C8.33939 9.05122 8.45411 9.07737 8.55591 9.13211C8.6577 9.18686 8.74276 9.26817 8.80205 9.36738C8.8613 9.46661 8.89258 9.58003 8.89258 9.69561C8.89258 9.81118 8.8613 9.9246 8.80205 10.0238C8.74277 10.1231 8.65772 10.2044 8.55593 10.2592C8.45414 10.314 8.33941 10.3402 8.22393 10.335H8.22256ZM8.22256 13.742H4.9583C4.6165 13.7266 4.34717 13.4449 4.34717 13.1027C4.34717 12.7605 4.61631 12.4789 4.9583 12.4635H8.22393C8.33941 12.4582 8.45416 12.4844 8.55596 12.5392C8.65776 12.594 8.74281 12.6753 8.80205 12.7746C8.8613 12.8738 8.89258 12.9873 8.89258 13.1028C8.89258 13.2184 8.8613 13.3318 8.80205 13.4311C8.74277 13.5303 8.65772 13.6116 8.55593 13.6664C8.45414 13.7212 8.33941 13.7474 8.22393 13.7422H8.22256V13.742ZM14.5214 11.8016C14.3288 11.7921 14.1373 11.835 13.9673 11.9259C13.7973 12.0167 13.6551 12.1521 13.556 12.3174C13.4568 12.4827 13.4045 12.6719 13.4045 12.8647C13.4045 13.0574 13.4569 13.2466 13.556 13.4119C13.6551 13.5773 13.7973 13.7126 13.9673 13.8034C14.1373 13.8943 14.3288 13.9372 14.5214 13.9277C15.088 13.8998 15.5331 13.432 15.5331 12.8646C15.5331 12.2973 15.0882 11.8295 14.5214 11.8016ZM17.2899 18.1342C16.9843 18.1328 16.722 17.9154 16.6644 17.615C16.4733 16.5826 15.5728 15.8334 14.5228 15.8334C13.4728 15.8334 12.5722 16.5826 12.3812 17.615C12.3681 17.7324 12.3229 17.8439 12.2505 17.9372C12.1782 18.0304 12.0814 18.1019 11.971 18.1438C11.8606 18.1856 11.7408 18.1962 11.6248 18.1742C11.5088 18.1523 11.4011 18.0988 11.3136 18.0195C11.226 17.9403 11.1621 17.8385 11.1288 17.7252C11.0955 17.612 11.0941 17.4917 11.1249 17.3777C11.3425 16.2219 12.1356 15.2574 13.2274 14.8207C12.3694 14.2506 11.9858 13.1857 12.2837 12.1994C12.5815 11.2131 13.4901 10.5383 14.5204 10.5383C15.5507 10.5383 16.4593 11.2131 16.7569 12.1994C17.0548 13.1857 16.6712 14.2506 15.8132 14.8207C16.9046 15.2576 17.6968 16.2221 17.9132 17.3777C17.9487 17.5637 17.8995 17.7561 17.7792 17.9021C17.7196 17.9743 17.6449 18.0325 17.5604 18.0725C17.4758 18.1126 17.3835 18.1337 17.2899 18.1342ZM8.22256 18.142H3.30732C2.60166 18.1412 2.02959 17.5693 2.02881 16.8635V3.5207C2.02959 2.81484 2.60146 2.24297 3.30732 2.24219H16.6761C17.3815 2.24297 17.9532 2.81504 17.9532 3.5207V9.55352C17.9532 9.66563 17.9237 9.77578 17.8677 9.87288C17.8116 9.96998 17.731 10.0506 17.6339 10.1067C17.5368 10.1627 17.4267 10.1922 17.3146 10.1922C17.2024 10.1922 17.0923 10.1627 16.9952 10.1066C16.8981 10.0506 16.8175 9.96996 16.7614 9.87287C16.7054 9.77577 16.6759 9.66563 16.6759 9.55352V3.5207H3.30732V16.8635H8.22256C8.33803 16.8583 8.45276 16.8845 8.55455 16.9392C8.65635 16.994 8.74141 17.0753 8.80069 17.1745C8.85998 17.2738 8.89129 17.3872 8.89129 17.5028C8.89129 17.6184 8.85998 17.7318 8.80068 17.8311C8.74133 17.9302 8.65626 18.0115 8.55448 18.0662C8.4527 18.1209 8.33801 18.1471 8.22256 18.142Z" fill="currentColor"/>
</svg>
