<svg width="20" height="20" viewBox="0 0 20 20" fill="none" xmlns="http://www.w3.org/2000/svg">
<path d="M17.8637 9.31774H10.6819V2.13592C10.6819 1.77228 10.3637 1.4541 10 1.4541C9.63641 1.4541 9.31823 1.77228 9.31823 2.13592V9.31774H2.13641C1.77277 9.31774 1.45459 9.63592 1.45459 9.99956C1.45459 10.3632 1.77277 10.6814 2.13641 10.6814H9.31823V17.8632C9.31823 18.2268 9.63641 18.545 10 18.545C10.3637 18.545 10.6819 18.2268 10.6819 17.8632V10.6814H17.8637C18.2273 10.6814 18.5455 10.3632 18.5455 9.99956C18.5455 9.63592 18.2273 9.31774 17.8637 9.31774Z" fill="currentColor"/>
</svg>
