<svg width="20" height="20" viewBox="0 0 20 20" fill="none" xmlns="http://www.w3.org/2000/svg">
<path d="M9.99984 18.3337C12.301 18.3337 14.3843 17.4009 15.8924 15.8929C17.4004 14.3848 18.3332 12.3015 18.3332 10.0003C18.3332 7.69916 17.4004 5.61583 15.8924 4.10777C14.3843 2.59973 12.301 1.66699 9.99984 1.66699C7.69867 1.66699 5.61534 2.59973 4.10728 4.10777C2.59925 5.61583 1.6665 7.69916 1.6665 10.0003C1.6665 12.3015 2.59925 14.3848 4.10728 15.8929C5.61534 17.4009 7.69867 18.3337 9.99984 18.3337Z" stroke="currentColor" stroke-width="1.25" stroke-linejoin="round"/>
<path d="M10 11.9274V10.2607C11.3807 10.2607 12.5 9.14145 12.5 7.76074C12.5 6.38003 11.3807 5.26074 10 5.26074C8.61929 5.26074 7.5 6.38003 7.5 7.76074" stroke="currentColor" stroke-width="1.25" stroke-linecap="round" stroke-linejoin="round"/>
<path fill-rule="evenodd" clip-rule="evenodd" d="M10.0002 15.6771C10.5755 15.6771 11.0418 15.2107 11.0418 14.6354C11.0418 14.0601 10.5755 13.5938 10.0002 13.5938C9.42487 13.5938 8.9585 14.0601 8.9585 14.6354C8.9585 15.2107 9.42487 15.6771 10.0002 15.6771Z" fill="currentColor"/>
</svg>
