<svg width="20" height="20" viewBox="0 0 20 20" fill="none" xmlns="http://www.w3.org/2000/svg">
<path d="M16.591 15.9089H3.40918C3.10787 15.9087 2.81897 15.7889 2.60592 15.5758C2.39286 15.3628 2.27306 15.0739 2.27282 14.7726V5.68982L9.02509 10.9244C9.30399 11.1409 9.64702 11.2584 10.0001 11.2584C10.3532 11.2584 10.6962 11.1409 10.9751 10.9244L17.7274 5.68982V14.7726C17.7274 15.3994 17.2178 15.9089 16.591 15.9089ZM16.591 4.54528C16.7028 4.54528 16.8087 4.56664 16.911 4.59664L10.1396 9.84664C10.0998 9.87783 10.0507 9.89477 10.0001 9.89477C9.9495 9.89477 9.90037 9.87783 9.86054 9.84664L3.08918 4.59664C3.19145 4.56664 3.29736 4.54528 3.40918 4.54528H16.591ZM16.591 3.18164H3.40918C2.7464 3.18248 2.111 3.44615 1.64234 3.9148C1.17368 4.38346 0.910022 5.01886 0.90918 5.68164V14.7726C0.90918 16.1507 2.031 17.2726 3.40918 17.2726H16.591C17.9692 17.2726 19.091 16.1507 19.091 14.7726V5.68164C19.091 4.30346 17.9692 3.18164 16.591 3.18164Z" fill="currentColor"/>
</svg>
