<?xml version="1.0" standalone="no"?><!DOCTYPE svg PUBLIC "-//W3C//DTD SVG 1.1//EN" "http://www.w3.org/Graphics/SVG/1.1/DTD/svg11.dtd"><svg t="1745827933832" class="icon" viewBox="0 0 1024 1024" version="1.1" xmlns="http://www.w3.org/2000/svg" p-id="12777" xmlns:xlink="http://www.w3.org/1999/xlink" width="200" height="200"><path d="M511.2832 47.5648c255.8464 0 463.9232 208.128 464.0256 464.0256 0 255.8976-208.0768 464.0256-464.0256 464.0256-255.8976 0-464.0256-208.128-464.0256-464.0256S255.3856 47.5648 511.2832 47.5648z m0 103.168c-199.0144 0-360.9088 161.8432-360.9088 360.8576s161.8944 360.8576 360.9088 360.8576c198.912 0 360.8064-161.8432 360.8064-360.8576-0.1024-199.0144-161.8944-360.8576-360.8064-360.8576z m0 0" fill="#2FC774" p-id="12778"></path><path d="M495.9744 590.08l187.0336-194.7136a40.8576 40.8576 0 0 1 45.6192-9.3696 42.1888 42.1888 0 0 1 13.4144 67.7888l-216.5248 225.536a40.7552 40.7552 0 0 1-59.0848 0l-123.392-128.512a42.5472 42.5472 0 0 1-10.9568-40.1408 41.6256 41.6256 0 0 1 29.2864-30.0544 40.448 40.448 0 0 1 40.448 11.3664l94.1568 98.0992z m0 45.568l-7.6288 7.9872a10.752 10.752 0 0 1 15.3088 0l-7.68-7.9872z m0 0" fill="#2FC774" p-id="12779"></path></svg>