<svg width="24" height="24" viewBox="0 0 24 24" fill="none" xmlns="http://www.w3.org/2000/svg">
<path d="M11.9999 3.99084V1.07812L5.44629 4.71901L11.9999 8.3599V5.44719C16.8059 5.44719 20.738 9.08808 20.738 13.6028V17.098H22.1944V13.6028C22.1944 8.28708 17.6069 3.99084 11.9999 3.99084Z" fill="#070404"/>
<path d="M14.9126 11.2734H3.26178C2.46078 11.2734 1.80542 11.9288 1.80542 12.7298V21.4679C1.80542 22.2689 2.46078 22.9243 3.26178 22.9243H14.9126C15.7136 22.9243 16.369 22.2689 16.369 21.4679V12.7298C16.369 11.9288 15.7136 11.2734 14.9126 11.2734ZM14.9126 21.4679H3.26178V12.7298H14.9126V21.4679Z" fill="#070404"/>
</svg>
