<svg width="24" height="24" viewBox="0 0 24 24" fill="none" xmlns="http://www.w3.org/2000/svg">
<path d="M9.91113 4.70703C10.855 3.09764 13.1449 3.0977 14.0889 4.70703V4.70801L21.1514 16.752C22.1262 18.4149 20.9379 20.5 19.0625 20.5H4.9375C3.12034 20.4999 1.94879 18.5431 2.76367 16.9082L2.84863 16.751L9.91113 4.70801V4.70703ZM12 4.48438C11.7421 4.48439 11.489 4.55279 11.2656 4.68164C11.098 4.77843 10.9511 4.90699 10.834 5.05957L10.7285 5.2168L3.66602 17.2617C3.08916 18.245 3.78053 19.5146 4.9375 19.5146H19.0625C20.1478 19.5146 20.8227 18.3987 20.4277 17.4492L20.334 17.2617L13.2715 5.2168C13.1426 4.99468 12.9578 4.8101 12.7354 4.68164C12.5119 4.55264 12.258 4.48438 12 4.48438Z" stroke="#070404"/>
</svg>
