<svg width="24" height="24" viewBox="0 0 24 24" fill="none" xmlns="http://www.w3.org/2000/svg">
<path d="M19.4204 6.5166C19.5805 6.74877 19.6498 6.97552 19.6499 7.20117C19.6499 7.42562 19.5806 7.65096 19.4224 7.88184C19.5413 7.68333 19.6235 7.45702 19.6235 7.20117C19.6235 6.94366 19.5408 6.71606 19.4204 6.5166ZM4.57666 6.52148C4.45786 6.71968 4.37655 6.94581 4.37646 7.20117C4.37646 7.45598 4.45738 7.68203 4.57568 7.87988C4.41864 7.64981 4.3501 7.42486 4.3501 7.20117C4.35018 6.97707 4.4189 6.75199 4.57666 6.52148Z" stroke="#070404" stroke-width="1.5"/>
<path d="M4.47217 11.8389C4.41367 11.9798 4.37632 12.1396 4.37939 12.3145V12.3154C4.38217 12.4718 4.4174 12.6147 4.46924 12.7412C4.38747 12.5885 4.35263 12.4461 4.3501 12.3145V12.3105C4.34686 12.1664 4.38007 12.0096 4.47217 11.8389ZM19.5327 11.6572C19.6125 11.8069 19.6479 11.9455 19.6499 12.0781V12.082C19.6527 12.2267 19.6194 12.3765 19.5386 12.5342C19.5934 12.3931 19.6269 12.2396 19.6235 12.0732L19.6226 12.0674C19.6183 11.9166 19.5828 11.7808 19.5327 11.6572Z" stroke="#070404" stroke-width="1.5"/>
<path d="M18.9956 15.8008C19.3065 15.6148 19.7254 15.6914 19.9282 15.9609C20.1789 16.2933 20.3022 16.6413 20.3022 16.9961C20.3022 17.5139 20.0505 17.9793 19.5952 18.3896C19.1388 18.8011 18.4828 19.1515 17.6938 19.4365C16.1166 20.0063 14.0289 20.3037 12.0005 20.3037C9.97193 20.3037 7.88352 20.0066 6.30615 19.4365C5.51718 19.1514 4.86122 18.8004 4.40479 18.3887C3.94965 17.9781 3.69789 17.5124 3.69775 16.9941C3.69775 16.6473 3.81307 16.3087 4.04932 15.9873L4.05029 15.9883C4.22634 15.7519 4.56772 15.6607 4.85986 15.7637L4.98096 15.8193C5.28765 15.9999 5.36378 16.3566 5.17041 16.6211C5.08117 16.7428 5.02881 16.8681 5.02881 16.9961C5.02893 17.2545 5.23243 17.5114 5.55322 17.7451C5.88053 17.9836 6.35607 18.2175 6.9585 18.4229C8.16441 18.8339 9.89422 19.1377 12.0005 19.1377C14.1065 19.1377 15.8357 18.8338 17.0415 18.4229C17.6439 18.2175 18.1195 17.9836 18.4468 17.7451C18.7676 17.5114 18.9711 17.2545 18.9712 16.9961C18.9712 16.8647 18.9158 16.7345 18.8169 16.6045C18.6181 16.3425 18.6928 15.9834 18.9956 15.8008Z" fill="#070404" stroke="#070404" stroke-width="0.195312"/>
</svg>
