<svg width="20" height="20" viewBox="0 0 20 20" fill="none" xmlns="http://www.w3.org/2000/svg">
<path d="M15.625 10.625H13.625L12.5 6.125C12.375 5.875 12.125 5.625 11.875 5.625C11.625 5.625 11.375 5.75 11.25 6L9.5 11.5L8.75 8.625C8.625 8.375 8.375 8.125 8.125 8.125C7.875 8.125 7.625 8.25 7.5 8.5L6.5 10.625H4.375C4 10.625 3.75 11 3.75 11.25C3.75 11.625 4 11.875 4.375 11.875H6.875C7.125 11.875 7.375 11.75 7.375 11.5L7.875 10.5L8.75 13.875C8.875 14.125 9 14.375 9.375 14.375C9.625 14.375 9.875 14.25 10 14L11.75 8.5L12.5 11.375C12.625 11.625 12.875 11.875 13.125 11.875H15.625C16 11.875 16.25 11.5 16.25 11.25C16.25 10.875 16 10.625 15.625 10.625Z" fill="black"/>
<path d="M10 20C4.5 20 0 15.5 0 10C0 4.5 4.5 0 10 0C12.125 0 14.125 0.625 15.875 1.875C16.125 2.125 16.25 2.5 16 2.75C15.75 3 15.375 3.125 15.125 2.875C13.625 1.75 11.875 1.25 10 1.25C5.125 1.25 1.25 5.125 1.25 10C1.25 14.875 5.125 18.75 10 18.75C14.875 18.75 18.75 14.875 18.75 10C18.75 8.5 18.375 7 17.625 5.625C17.5 5.375 17.5 5 17.875 4.75C18.125 4.625 18.5 4.625 18.75 5C19.5 6.5 20 8.25 20 10C20 15.5 15.5 20 10 20Z" fill="black"/>
</svg>
