<svg xmlns="http://www.w3.org/2000/svg" width="20" height="20" viewBox="0 0 20 20" fill="none">
  <path d="M15.8306 1.67383H4.17594C3.71546 1.67383 3.34277 2.04651 3.34277 2.507V17.4924C3.34277 17.9529 3.71546 18.3255 4.17594 18.3255H15.8306C16.2911 18.3255 16.6637 17.9529 16.6637 17.4924V2.507C16.6637 2.04651 16.2911 1.67383 15.8306 1.67383ZM8.50375 10.3314C8.03546 10.7841 7.45009 10.9987 6.74765 10.9714H5.87546V13.7616H5.00911V6.29822H6.91741C7.64326 6.29822 8.20521 6.49334 8.60326 6.88163C9.00521 7.26993 9.20619 7.82602 9.20619 8.54797C9.20619 9.28163 8.97204 9.8748 8.50375 10.3314ZM13.0384 13.7616H12.0764L9.65692 6.29822H10.6189L12.4277 12.1324C12.4881 12.3255 12.533 12.548 12.5623 12.8016H12.5837C12.6072 12.5792 12.6579 12.3529 12.7359 12.1226L14.5779 6.29822H15.5067L13.0384 13.7616Z" fill="#004CC6"/>
  <path d="M6.7589 7.14746H5.875V10.125H6.67695C7.20573 10.125 7.60768 9.99429 7.8828 9.73088C8.15793 9.46356 8.29451 9.08307 8.29451 8.58941C8.29451 7.62746 7.78329 7.14746 6.7589 7.14746Z" fill="#004CC6"/>
</svg>