<?xml version="1.0" standalone="no"?><!DOCTYPE svg PUBLIC "-//W3C//DTD SVG 1.1//EN" "http://www.w3.org/Graphics/SVG/1.1/DTD/svg11.dtd"><svg t="1745897419160" class="icon" viewBox="0 0 1024 1024" version="1.1" xmlns="http://www.w3.org/2000/svg" p-id="3589" xmlns:xlink="http://www.w3.org/1999/xlink" width="200" height="200"><path d="M1023.929858 488.728167c0 35.119786-31.88426 63.645653-71.263472 63.686609h-47.775196v301.456773c0 93.461634-14.273172 169.92652-119.059145 169.92652H238.168167c-104.785973 0-119.059145-76.464886-119.059145-169.967476v-301.436295H73.013023l-0.061434-0.122868c-0.491472 0-0.941988 0.122868-1.453939 0.122868C32.057005 552.394298 0.070354 523.847953 0.070354 488.666733c0-18.532598 8.989846-35.017396 23.119673-46.689861l-0.143346-0.245736L460.088353 20.047971l0.327648-0.122868A75.359074 75.359074 0 0 1 512.020584 0.10239c0.430038 0 0.778164 0.081912 1.187725 0.10239l0.286692-0.10239 0.368604 0.163824c24.123095 0.552906 45.235922 11.651987 57.70703 28.423477l0.20478 0.081912 432.884636 416.174581-0.143346 0.245736c12.000113 11.406251 19.454109 26.621412 19.413153 43.536247zM511.938672 265.968383a134.970559 134.970559 0 0 0-134.888646 135.072949 134.970559 134.970559 0 0 0 134.888646 135.072948 134.991037 134.991037 0 0 0 134.909125-135.072948 134.991037 134.991037 0 0 0-134.909125-135.072949z m225.360491 514.469025c0-98.253488-62.74462-181.76281-150.247153-212.725559a10.361873 10.361873 0 0 0-12.737322 5.099024l-51.932231 131.018303a11.262905 11.262905 0 0 1-20.928526 0l-51.952709-131.018303a10.320917 10.320917 0 0 0-12.716844-5.099024c-87.502533 30.96275-150.247153 114.513027-150.247153 212.725559v12.163937c0 47.652327 142.547422 67.454562 225.360491 67.454563 82.792591 0 225.401447-19.802235 225.401447-67.454563v-12.163937z" fill="#FFAF35" p-id="3590"></path></svg>