<svg width="20" height="20" viewBox="0 0 20 20" fill="none" xmlns="http://www.w3.org/2000/svg">
<path d="M17.4998 11.667H2.49984C2.0396 11.667 1.6665 12.0401 1.6665 12.5003V16.667C1.6665 17.1272 2.0396 17.5003 2.49984 17.5003H17.4998C17.9601 17.5003 18.3332 17.1272 18.3332 16.667V12.5003C18.3332 12.0401 17.9601 11.667 17.4998 11.667Z" stroke="currentColor" stroke-width="1.25" stroke-linecap="round" stroke-linejoin="round"/>
<path d="M5.8335 14.583H9.16683" stroke="currentColor" stroke-width="1.25" stroke-linecap="round" stroke-linejoin="round"/>
<path d="M14.1667 14.5833C14.1667 14.1231 13.7936 13.75 13.3333 13.75C12.8731 13.75 12.5 14.1231 12.5 14.5833C12.5 15.0436 12.8731 15.4167 13.3333 15.4167C13.7936 15.4167 14.1667 15.0436 14.1667 14.5833Z" fill="currentColor"/>
<path d="M5 11.6663V3.33301" stroke="currentColor" stroke-width="1.25" stroke-linecap="round" stroke-linejoin="round"/>
<path d="M15 11.6663V3.33301" stroke="currentColor" stroke-width="1.25" stroke-linecap="round" stroke-linejoin="round"/>
</svg>
