<svg width="20" height="20" viewBox="0 0 20 20" fill="none" xmlns="http://www.w3.org/2000/svg">
<path d="M12.624 7.82422C12.624 7.82422 11.2784 11.6168 10.639 12.279C9.99962 12.9411 8.94449 12.9595 8.28237 12.3201C7.6202 11.6807 7.60179 10.6256 8.2412 9.96343C8.88062 9.3013 12.624 7.82422 12.624 7.82422Z" stroke="currentColor" stroke-width="1.25" stroke-linejoin="round"/>
<path d="M16.1872 16.1872C17.7706 14.6038 18.75 12.4162 18.75 10C18.75 5.1675 14.8325 1.25 10 1.25C5.1675 1.25 1.25 5.1675 1.25 10C1.25 12.4162 2.22938 14.6038 3.81282 16.1872" stroke="currentColor" stroke-width="1.25" stroke-linecap="round" stroke-linejoin="round"/>
<path d="M10 1.66699V3.33366" stroke="currentColor" stroke-width="1.25" stroke-linecap="round" stroke-linejoin="round"/>
<path d="M16.1854 4.64258L14.8901 5.69141" stroke="currentColor" stroke-width="1.25" stroke-linecap="round" stroke-linejoin="round"/>
<path d="M17.7177 11.3466L16.0938 10.9717" stroke="currentColor" stroke-width="1.25" stroke-linecap="round" stroke-linejoin="round"/>
<path d="M2.28223 11.3466L3.90618 10.9717" stroke="currentColor" stroke-width="1.25" stroke-linecap="round" stroke-linejoin="round"/>
<path d="M3.81445 4.64258L5.10969 5.69145" stroke="currentColor" stroke-width="1.25" stroke-linecap="round" stroke-linejoin="round"/>
</svg>
