<svg width="20" height="20" viewBox="0 0 20 20" fill="currentColor" xmlns="http://www.w3.org/2000/svg">
<path d="M19.1531 12.0815H18.3199V8.75074H19.1531C19.3833 8.75074 19.5687 8.56342 19.5687 8.33513C19.5687 8.10489 19.3833 7.91952 19.1531 7.91952H18.3199V5.92927C18.3199 5.41806 17.9063 5.0044 17.395 5.0044H15.8224V3.34001C15.8224 2.87952 15.4497 2.50684 14.9892 2.50684H4.99895C4.53846 2.50684 4.16578 2.87952 4.16578 3.34001V5.0044H2.59505C2.08383 5.0044 1.67017 5.41806 1.67017 5.92927V7.91757H0.836996C0.606753 7.91757 0.421387 8.10488 0.421387 8.33318C0.421387 8.56342 0.608704 8.74879 0.836996 8.74879H1.67017V12.0795H0.836996C0.606753 12.0795 0.421387 12.2668 0.421387 12.4951C0.421387 12.7234 0.608704 12.9107 0.836996 12.9107H1.67017V16.5654C1.67017 17.0766 2.08383 17.4903 2.59505 17.4903H17.395C17.9063 17.4903 18.3199 17.0766 18.3199 16.5654V12.9127H19.1531C19.3833 12.9127 19.5687 12.7254 19.5687 12.4971C19.5687 12.2688 19.3833 12.0815 19.1531 12.0815ZM5.0009 9.99952C4.08187 9.99952 3.33651 9.25415 3.33651 8.33513C3.33651 7.4161 4.08187 6.67074 5.0009 6.67074C5.91992 6.67074 6.66529 7.4161 6.66529 8.33513C6.66529 9.25415 5.91992 9.99952 5.0009 9.99952ZM15.8224 15.8278H12.4936C12.0331 15.8278 11.6604 15.4551 11.6604 14.9946C11.6604 14.5342 12.0331 14.1615 12.4936 14.1615H15.8243C16.2848 14.1615 16.6575 14.5342 16.6575 14.9946C16.6555 15.4551 16.2829 15.8278 15.8224 15.8278Z" />
</svg>
