<svg t="1763456753874" class="icon" viewBox="0 0 1024 1024" version="1.1" xmlns="http://www.w3.org/2000/svg" p-id="28458" width="256" height="256"><path d="M170.688 298.688a213.312 213.312 0 1 1 426.624 0 213.312 213.312 0 0 1-426.624 0zM641.28 122.88a42.688 42.688 0 0 1 51.904-30.72 213.312 213.312 0 0 1 0 413.312 42.688 42.688 0 1 1-21.12-82.688 128 128 0 0 0 0-247.936 42.688 42.688 0 0 1-30.784-51.968zM62.464 659.84a213.312 213.312 0 0 1 150.848-62.528h341.376A213.312 213.312 0 0 1 768 810.688v76.8a51.136 51.136 0 0 1-51.2 51.2H51.2a51.136 51.136 0 0 1-51.2-51.2v-76.8c0-56.576 22.464-110.848 62.464-150.848z m749.568-24.96a42.688 42.688 0 0 1 51.968-30.656 213.312 213.312 0 0 1 160 206.4V896a42.688 42.688 0 1 1-85.312 0v-85.312a128 128 0 0 0-96-123.84 42.688 42.688 0 0 1-30.72-51.968z" fill="currentColor" p-id="28459" data-spm-anchor-id="a313x.search_index.0.i8.753e3a81C3wnMn" class=""></path></svg>