<?xml version="1.0" standalone="no"?><!DOCTYPE svg PUBLIC "-//W3C//DTD SVG 1.1//EN" "http://www.w3.org/Graphics/SVG/1.1/DTD/svg11.dtd"><svg t="1749030590552" class="icon" viewBox="0 0 1024 1024" version="1.1" xmlns="http://www.w3.org/2000/svg" p-id="17230" xmlns:xlink="http://www.w3.org/1999/xlink" width="200" height="200"><path d="M994.304 511.744c0 266.176-215.808 481.92-481.92 481.92-266.176 0-481.92-215.744-481.92-481.92 0-266.112 215.744-481.92 481.92-481.92 266.112-0.064 481.92 215.744 481.92 481.92" fill="#C4C4C4" p-id="17231"></path><path d="M941.504 511.744c0 236.992-192.128 429.184-429.12 429.184-237.056 0-429.184-192.128-429.184-429.184C83.2 274.688 275.328 82.56 512.384 82.56c236.992 0 429.12 192.128 429.12 429.184" fill="#7E7E7F" p-id="17232"></path><path d="M923.776 511.744c0 227.2-184.192 411.392-411.392 411.392-227.2 0-411.392-184.192-411.392-411.392 0-227.2 184.192-411.392 411.392-411.392 227.2 0 411.392 184.128 411.392 411.392" fill="#FFFFFF" p-id="17233"></path><path d="M551.936 507.264L508.48 218.24l-43.456 289.024zM551.936 507.264l-43.456 289.024-43.456-289.024z" fill="#B6BCC0" p-id="17234"></path><path d="M508.48 550.72l289.024-43.456-289.024-43.456z" fill="#B6BCC0" p-id="17235"></path><path d="M508.48 550.72l-289.024-43.456 289.024-43.456z" fill="#B6BCC0" p-id="17236"></path><path d="M482.56 199.552V130.56h9.728l22.08 34.88c5.12 8.064 9.088 15.36 12.416 22.4l0.192-0.128c-0.832-9.216-1.024-17.6-1.024-28.352v-28.8h8.384v68.992h-9.024l-21.888-35.008c-4.8-7.68-9.408-15.552-12.928-23.04l-0.32 0.128c0.512 8.704 0.704 16.96 0.704 28.48v29.504h-8.32zM489.792 885.44c3.968 2.432 9.856 4.48 15.936 4.48 9.088 0 14.4-4.8 14.4-11.776 0-6.464-3.712-10.112-12.992-13.696-11.264-3.968-18.24-9.856-18.24-19.52 0-10.752 8.896-18.752 22.336-18.752 7.04 0 12.16 1.664 15.232 3.392l-2.432 7.296c-2.24-1.216-6.848-3.264-13.12-3.264-9.408 0-12.992 5.632-12.992 10.368 0 6.464 4.224 9.6 13.696 13.312 11.648 4.48 17.6 10.112 17.6 20.288 0 10.624-7.872 19.84-24.128 19.84-6.656 0-13.888-1.92-17.6-4.416l2.304-7.552z" fill="#485765" p-id="17237"></path><path d="M879.232 513.216h-26.816v24.896h29.888v7.488H843.52V476.544h37.248v7.488h-28.352v21.824h26.816v7.36z" fill="#485765" p-id="17238"></path><path d="M152.384 545.536l-17.472-68.992h9.408l8.192 34.88c2.048 8.576 3.904 17.216 5.12 23.872h0.192c1.152-6.848 3.264-15.04 5.632-23.936l9.216-34.816h9.344l8.384 35.008c1.92 8.192 3.776 16.384 4.8 23.616h0.192c1.408-7.552 3.392-15.232 5.504-23.872l9.088-34.816h9.088l-19.52 68.992h-9.344l-8.704-35.904c-2.176-8.832-3.584-15.552-4.48-22.528h-0.192c-1.216 6.848-2.752 13.632-5.312 22.528l-9.856 35.904h-9.28z" fill="#485765" p-id="17239"></path><path d="M452.224 456.64l19.648 19.648c19.584-19.584 51.328-19.584 70.912 0 19.648 19.648 19.648 51.392 0.064 70.976l19.648 19.584 197.248-300.352-307.52 190.144z" fill="#0C6BB0" p-id="17240"></path><path d="M542.784 547.2c-19.584 19.584-51.392 19.584-70.976 0-19.584-19.584-19.584-51.328 0-70.976l-19.648-19.648-197.248 300.352 307.456-190.208-19.584-19.52c0.064 0 0.064 0 0 0z" fill="#DE2726" p-id="17241"></path><path d="M471.872 547.2c19.584 19.584 51.392 19.584 70.976 0 19.584-19.584 19.584-51.328-0.064-70.976-19.584-19.584-51.328-19.584-70.912 0-19.584 19.648-19.584 51.392 0 70.976z" fill="#CCCCCC" p-id="17242"></path></svg>