<?xml version="1.0" standalone="no"?><!DOCTYPE svg PUBLIC "-//W3C//DTD SVG 1.1//EN" "http://www.w3.org/Graphics/SVG/1.1/DTD/svg11.dtd"><svg t="1749028478864" class="icon" viewBox="0 0 1024 1024" version="1.1" xmlns="http://www.w3.org/2000/svg" p-id="15396" data-spm-anchor-id="a313x.search_index.0.i13.3c413a81UoKmEg" xmlns:xlink="http://www.w3.org/1999/xlink" width="200" height="200"><path d="M249.986631 882.090667c137.642667 144.711111 366.506667 150.428444 511.203556 12.8 144.711111-137.642667 150.428444-366.506667 12.8-511.217778-137.642667-144.696889-366.506667-150.414222-511.217778-12.785778-144.696889 137.642667-150.414222 366.506667-12.785778 511.203556" fill="#e6e6e6" p-id="15397" data-spm-anchor-id="a313x.search_index.0.i14.3c413a81UoKmEg" class="selected"></path><path d="M286.39552 395.733333c-63.317333 60.231111-99.313778 141.482667-101.603556 228.878223a325.148444 325.148444 0 0 0 90.026667 233.671111c60.245333 63.331556 141.496889 99.342222 228.892445 101.617777a325.134222 325.134222 0 0 0 233.671111-90.026666c63.331556-60.245333 99.342222-141.496889 101.617777-228.892445a325.148444 325.148444 0 0 0-90.026666-233.671111c-60.245333-63.331556-141.482667-99.342222-228.892445-101.617778a325.162667 325.162667 0 0 0-233.671111 90.026667m495.146667 520.576a387.384889 387.384889 0 0 1-131.555556 82.616889 389.12 389.12 0 0 1-147.797333 24.96 390.499556 390.499556 0 0 1-146.346667-32.327111 387.896889 387.896889 0 0 1-127.288889-89.088 387.470222 387.470222 0 0 1-82.602666-131.555556A389.176889 389.176889 0 0 1 121.01952 623.104c1.265778-50.702222 12.216889-100.067556 32.327111-146.346667a387.896889 387.896889 0 0 1 89.088-127.274666 387.456 387.456 0 0 1 131.555556-82.616889 389.12 389.12 0 0 1 147.797333-24.96c50.702222 1.265778 100.067556 12.216889 146.346667 32.327111a387.939556 387.939556 0 0 1 127.288889 89.088 387.384889 387.384889 0 0 1 82.602666 131.555555 389.091556 389.091556 0 0 1 24.96 147.797334 390.570667 390.570667 0 0 1-32.327111 146.360889 387.413333 387.413333 0 0 1-89.088 127.260444" fill="#e6e6e6" p-id="15398" data-spm-anchor-id="a313x.search_index.0.i9.3c413a81UoKmEg" class=""></path><path d="M521.175964 574.577778l-223.431111-155.690667 123.491556 190.336-138.012445 12.344889 145.578667 46.577778-142.435555 197.091555 231.082666-144.526222 223.445334 155.704889-123.392-190.250667 138.012444-12.344889-145.664-46.677333 142.421333-197.091555z" fill="#cdcdcd" p-id="15399" data-spm-anchor-id="a313x.search_index.0.i11.3c413a81UoKmEg" class=""></path><path d="M508.802631 994.432c0.967111-0.611556 1.848889-7.779556 2.944-21.475556l44.515556-332.686222-88.547556 8.064 39.082667 327.992889c0.483556 12.629333 1.208889 18.744889 2.005333 18.104889" fill="#707070" p-id="15400" data-spm-anchor-id="a313x.search_index.0.i12.3c413a81UoKmEg" class=""></path><path d="M521.574187 271.288889c-1.024 0.071111-2.218667 6.954667-3.598223 20.835555L460.788409 627.555556c-2.048 14.321778 2.816 28.074667 14.762667 41.073777a48.867556 48.867556 0 0 0 34.275555 15.857778l0.568889 0.014222 1.28 0.042667c0.384 0 0.753778 0 1.223111-0.071111 0.369778 0 0.853333-0.071111 1.294222 0.028444 0.384 0.014222 0.853333-0.071111 1.223111-0.056889 0.469333-0.085333 0.839111-0.071111 1.294223-0.142222 0.384 0 0.853333-0.085333 1.223111-0.071111 0.455111-0.085333 0.839111-0.071111 1.308444-0.142222a3.854222 3.854222 0 0 0 1.109334-0.170667c0.469333-0.071111 0.938667-0.156444 1.308444-0.142222l1.223111-0.256c0.455111-0.071111 0.839111-0.241778 1.308445-0.327111l1.208888-0.256c0.469333-0.071111 0.853333-0.241778 1.308445-0.327111 0.384-0.184889 0.753778-0.170667 1.137778-0.341334 0.369778-0.170667 0.839111-0.256 1.208889-0.426666 0.384-0.184889 0.853333-0.256 1.137777-0.341334 0.369778-0.184889 0.824889-0.256 1.308445-0.526222a9.415111 9.415111 0 0 1 1.024-0.426666l1.223111-0.625778 1.137778-0.526222 1.223111-0.611556a3.797333 3.797333 0 0 0 1.038222-0.611556c0.469333-0.270222 0.853333-0.440889 1.322667-0.711111 0.369778-0.170667 0.654222-0.426667 1.038222-0.611555 0.469333-0.270222 0.753778-0.540444 1.223111-0.796445 0.284444-0.284444 0.668444-0.455111 0.853333-0.625777 0.469333-0.270222 0.853333-0.625778 1.322667-0.881778 0.284444-0.284444 0.568889-0.355556 0.853333-0.625778 0.384-0.355556 0.952889-0.711111 1.336889-1.080889 0.184889-0.170667 0.469333-0.440889 0.753778-0.526222 0.668444-0.625778 1.422222-1.166222 1.991111-1.706667a50.033778 50.033778 0 0 0 15.701333-39.765333c-17.578667-150.727111-30.72-263.765333-39.509333-339.043556-0.853333-6.912-0.967111-20.636444-2.460444-20.508444" fill="#FF0000" p-id="15401"></path><path d="M490.598187 660.622222a29.511111 29.511111 0 1 0 42.766222-40.675555 29.511111 29.511111 0 0 0-42.766222 40.675555" fill="#FFFFFF" p-id="15402"></path><path d="M451.885298 177.777778h27.875555V118.641778c0-16.924444-2.190222-35.441778-3.584-51.370667h0.995556l14.933333 31.658667 42.609778 78.848h29.866667V30.435556h-27.875556v58.737777c0 16.725333 2.190222 36.238222 3.783111 51.569778h-0.995555l-14.734223-31.857778-42.808888-78.449777h-30.065778V177.777778z" fill="#FF0101" p-id="15403"></path></svg>