<svg width="20" height="20" viewBox="0 0 20 20" fill="none" xmlns="http://www.w3.org/2000/svg">
<path d="M16.6668 6.8327V2.50033C16.6668 2.04009 16.2937 1.66699 15.8335 1.66699H4.16683C3.70659 1.66699 3.3335 2.04009 3.3335 2.50033V17.5003C3.3335 17.9606 3.70659 18.3337 4.16683 18.3337H8.3335" stroke="#333333" stroke-width="1.25" stroke-linecap="round" stroke-linejoin="round"/>
<path d="M6.6665 5.83301H12.0832" stroke="#333333" stroke-width="1.25" stroke-linecap="round"/>
<path d="M6.6665 8.75H8.74984" stroke="#333333" stroke-width="1.25" stroke-linecap="round"/>
<path d="M10.0002 14.1667C10.0002 16.4679 11.8656 18.3333 14.1668 18.3333C16.468 18.3333 18.3335 16.4679 18.3335 14.1667C18.3335 11.8655 16.468 10 14.1668 10C11.8656 10 10.0002 11.8655 10.0002 14.1667Z" fill="#333333" stroke="#333333" stroke-width="1.25" stroke-linecap="round" stroke-linejoin="round"/>
<path d="M14.1665 15V16.25" stroke="white" stroke-width="1.25" stroke-linecap="round"/>
<path d="M14.1668 13.3337C14.6271 13.3337 15.0002 12.9606 15.0002 12.5003C15.0002 12.0401 14.6271 11.667 14.1668 11.667C13.7066 11.667 13.3335 12.0401 13.3335 12.5003C13.3335 12.9606 13.7066 13.3337 14.1668 13.3337Z" fill="white"/>
</svg>
