<svg width="20" height="20" viewBox="0 0 20 20" fill="none" xmlns="http://www.w3.org/2000/svg">
<path d="M2.85735 17.8567C2.66791 17.8567 2.48623 17.7815 2.35228 17.6475C2.21832 17.5136 2.14307 17.3319 2.14307 17.1425V2.85675C2.1431 2.66733 2.21837 2.48567 2.35232 2.35175C2.48627 2.21782 2.66793 2.14258 2.85735 2.14258C3.04677 2.14258 3.22844 2.21782 3.36239 2.35175C3.49634 2.48567 3.57161 2.66733 3.57164 2.85675V17.1425C3.57164 17.3319 3.49638 17.5136 3.36243 17.6475C3.22847 17.7815 3.04679 17.8567 2.85735 17.8567ZM8.03592 13.571C8.03592 13.8552 8.14881 14.1277 8.34974 14.3286C8.55067 14.5296 8.82319 14.6425 9.10735 14.6425H10.8931C11.1772 14.6425 11.4497 14.5296 11.6507 14.3286C11.8516 14.1277 11.9645 13.8552 11.9645 13.571V6.42817C11.9645 6.14401 11.8516 5.87149 11.6507 5.67056C11.4497 5.46963 11.1772 5.35675 10.8931 5.35675H9.10735C8.82319 5.35675 8.55067 5.46963 8.34974 5.67056C8.14881 5.87149 8.03592 6.14401 8.03592 6.42817V13.571ZM7.34021 15.3382C6.87129 14.8696 6.60768 14.2339 6.60735 13.571V6.42817C6.60735 5.76513 6.87074 5.12925 7.33958 4.66041C7.80843 4.19157 8.44431 3.92817 9.10735 3.92817H10.8931C11.5561 3.92817 12.192 4.19157 12.6608 4.66041C13.1297 5.12925 13.3931 5.76513 13.3931 6.42817V13.571C13.3931 14.2341 13.1297 14.87 12.6608 15.3388C12.192 15.8076 11.5561 16.071 10.8931 16.071H9.10735C8.44444 16.0707 7.8088 15.8071 7.34021 15.3382ZM17.1431 17.8567C16.9536 17.8567 16.7719 17.7815 16.638 17.6475C16.504 17.5136 16.4288 17.3319 16.4288 17.1425V2.85675C16.4288 2.66733 16.5041 2.48567 16.638 2.35175C16.772 2.21782 16.9536 2.14258 17.1431 2.14258C17.3325 2.14258 17.5142 2.21782 17.6481 2.35175C17.7821 2.48567 17.8573 2.66733 17.8574 2.85675V17.1425C17.8574 17.3319 17.7821 17.5136 17.6481 17.6475C17.5142 17.7815 17.3325 17.8567 17.1431 17.8567Z" fill="#1D2129"/>
</svg>
