<svg width="20" height="20" viewBox="0 0 20 20" fill="none" xmlns="http://www.w3.org/2000/svg">
<path d="M3.3335 14.9997L3.33542 11.6841C3.33579 11.4541 3.5223 11.2677 3.75233 11.2674C5.14145 11.2674 6.53062 11.2674 7.91979 11.2674C8.30375 11.2674 8.3017 10.9268 8.3017 10.116C8.3017 9.30517 6.25937 8.62222 6.25937 5.77167C6.25937 2.92114 8.37512 2.08301 10.1335 2.08301C11.8919 2.08301 13.8071 2.92114 13.8071 5.77167C13.8071 8.62222 11.7755 9.07542 11.7755 10.116C11.7755 11.1565 11.7755 11.2674 12.1007 11.2674C13.4839 11.2674 14.8671 11.2674 16.2503 11.2674C16.4804 11.2674 16.667 11.454 16.667 11.6841V14.9997H3.3335Z" stroke="#333333" stroke-width="1.25" stroke-linejoin="round"/>
<path d="M3.3335 17.5H16.6668" stroke="#333333" stroke-width="1.25" stroke-linecap="round" stroke-linejoin="round"/>
</svg>
