<svg width="20" height="20" viewBox="0 0 20 20" fill="none" xmlns="http://www.w3.org/2000/svg">
<path d="M5.3762 3.00195C5.19586 3.00195 5.0229 3.0736 4.89537 3.20112C4.76785 3.32865 4.6962 3.50161 4.6962 3.68195V4.12515H8.0802V3.68195C8.0802 3.59265 8.06261 3.50423 8.02844 3.42173C7.99427 3.33923 7.94418 3.26426 7.88104 3.20112C7.81789 3.13798 7.74293 3.08789 7.66043 3.05371C7.57793 3.01954 7.4895 3.00195 7.4002 3.00195H5.3762ZM7.4002 6.12515H3.1082V15.9148H16.8922V6.12515H7.4002ZM15.3042 3.68195V4.12515H11.9202V3.68195C11.9202 3.30595 12.225 3.00195 12.6002 3.00195H14.6242C14.9994 3.00195 15.3042 3.30595 15.3042 3.68195ZM1.9082 5.60515C1.9082 5.22915 2.2122 4.92515 2.5882 4.92515H17.4122C17.7882 4.92515 18.0922 5.22915 18.0922 5.60515V16.4348C18.0922 16.81 17.7882 17.1148 17.4122 17.1148H2.5882C2.40786 17.1148 2.2349 17.0431 2.10737 16.9156C1.97985 16.7881 1.9082 16.6151 1.9082 16.4348V5.60515ZM6.9066 8.73795C7.06573 8.73795 7.21835 8.80117 7.33087 8.91369C7.44339 9.02621 7.5066 9.17882 7.5066 9.33795V10.4188H8.5882C8.74733 10.4188 8.89995 10.482 9.01247 10.5945C9.12499 10.707 9.1882 10.8596 9.1882 11.0188C9.1882 11.1779 9.12499 11.3305 9.01247 11.443C8.89995 11.5555 8.74733 11.6188 8.5882 11.6188H7.5066V12.702C7.5066 12.8611 7.44339 13.0137 7.33087 13.1262C7.21835 13.2387 7.06573 13.302 6.9066 13.302C6.74747 13.302 6.59486 13.2387 6.48234 13.1262C6.36982 13.0137 6.3066 12.8611 6.3066 12.702V11.6188H5.2242C5.06507 11.6188 4.91246 11.5555 4.79994 11.443C4.68742 11.3305 4.6242 11.1779 4.6242 11.0188C4.6242 10.8596 4.68742 10.707 4.79994 10.5945C4.91246 10.482 5.06507 10.4188 5.2242 10.4188H6.3066V9.33795C6.3066 9.25916 6.32212 9.18114 6.35228 9.10834C6.38243 9.03555 6.42662 8.9694 6.48234 8.91369C6.53805 8.85797 6.6042 8.81378 6.67699 8.78363C6.74979 8.75347 6.82781 8.73795 6.9066 8.73795ZM10.8122 11.0188C10.8122 11.3508 11.0802 11.6188 11.4122 11.6188H14.7762C14.855 11.6188 14.933 11.6032 15.0058 11.5731C15.0786 11.5429 15.1448 11.4987 15.2005 11.443C15.2562 11.3873 15.3004 11.3212 15.3305 11.2484C15.3607 11.1756 15.3762 11.0975 15.3762 11.0188C15.3762 10.94 15.3607 10.8619 15.3305 10.7891C15.3004 10.7163 15.2562 10.6502 15.2005 10.5945C15.1448 10.5388 15.0786 10.4946 15.0058 10.4644C14.933 10.4343 14.855 10.4188 14.7762 10.4188H11.4122C11.2531 10.4188 11.1005 10.482 10.9879 10.5945C10.8754 10.707 10.8122 10.8596 10.8122 11.0188Z" fill="black"/>
</svg>
