<svg width="20" height="20" viewBox="0 0 20 20" fill="none" xmlns="http://www.w3.org/2000/svg">
<path d="M2.9165 15.4163C2.9165 12.2066 2.9165 4.58301 2.9165 4.58301C2.9165 3.2023 4.03579 2.08301 5.4165 2.08301H14.5832V12.9163C14.5832 12.9163 7.59675 12.9163 5.4165 12.9163C4.0415 12.9163 2.9165 14.0348 2.9165 15.4163Z" fill="#333333" stroke="#333333" stroke-width="1.25" stroke-linejoin="round"/>
<path d="M14.5832 12.917C14.5832 12.917 5.89721 12.917 5.4165 12.917C4.03579 12.917 2.9165 14.0363 2.9165 15.417C2.9165 16.7977 4.03579 17.917 5.4165 17.917C6.33696 17.917 10.7814 17.917 17.0832 17.917V2.91699" stroke="#333333" stroke-width="1.25" stroke-linecap="round" stroke-linejoin="round"/>
<path d="M5.8335 15.417H14.1668" stroke="#333333" stroke-width="1.25" stroke-linecap="round" stroke-linejoin="round"/>
</svg>
