<svg width="20" height="20" viewBox="0 0 20 20" fill="none" xmlns="http://www.w3.org/2000/svg">
<path d="M6.75 10C7.02614 10 7.25 10.2239 7.25 10.5C7.25 12.0188 8.48122 13.25 10 13.25C11.5188 13.25 12.75 12.0188 12.75 10.5C12.75 10.2239 12.9739 10 13.25 10H16.9692L15.2192 3H4.78078L3.03078 10H6.75ZM6.28305 11H3V17H17V11H13.717C13.4725 12.8347 11.9015 14.25 10 14.25C8.09847 14.25 6.5275 12.8347 6.28305 11ZM17.9924 10H18V17C18 17.5523 17.5523 18 17 18H3C2.44772 18 2 17.5523 2 17V10H2.00761C2.0126 9.95977 2.02003 9.91989 2.02986 9.88056L3.81062 2.75747C3.92192 2.3123 4.32191 2 4.78078 2H15.2192C15.6781 2 16.0781 2.3123 16.1894 2.75747L17.9702 9.88056C17.98 9.91989 17.9874 9.95977 17.9924 10Z" fill="#979797"/>
</svg>
