<svg width="20" height="20" viewBox="0 0 20 20" fill="none" xmlns="http://www.w3.org/2000/svg">
<path d="M16.46 2.63H13.12C12.46 2.63 11.92 3.17 11.92 3.83H15.26C15.92 3.83 16.46 3.3 16.46 2.63ZM10.06 1.25H6.72002C6.06002 1.25 5.52002 1.79 5.52002 2.45H8.86002C9.52002 2.45 10.06 1.91 10.06 1.25Z" fill="black"/>
<path d="M18.1199 13.9601C17.4899 11.8401 17.1099 9.65008 16.9899 7.44008L16.8599 5.59008C16.8699 5.44008 16.8199 5.29008 16.7199 5.17008C16.6199 5.05008 16.4699 4.98008 16.3099 4.97008H12.0499L11.9899 4.16008C11.9799 3.84008 11.7299 3.58008 11.3999 3.58008H4.29995C3.97995 3.58008 3.69995 3.83008 3.67995 4.16008L3.55995 6.65008C3.40995 9.56008 2.90995 12.4501 2.05995 15.2401L1.27995 17.9801C1.18995 18.2801 1.35995 18.6101 1.65995 18.7101C1.68995 18.7301 1.76995 18.7601 1.85995 18.7601H13.8999C14.2199 18.7501 14.4799 18.5001 14.4799 18.1801C14.4799 18.1101 14.4599 18.0301 14.4299 17.9701L14.0899 16.8301H18.1399C18.4499 16.8201 18.7099 16.5801 18.7199 16.2701C18.7399 16.1901 18.7399 16.1401 18.7399 16.1001V16.0801L18.1199 13.9601ZM2.62995 17.5101L3.22995 15.5401C4.07995 12.6601 4.58995 9.68008 4.72995 6.67008L4.79995 4.82008H10.7799L10.8499 6.72008V6.73008C10.9099 7.59008 10.9999 8.61008 11.1099 9.56008C11.3699 11.5901 11.7999 13.6201 12.3899 15.5901L12.6499 16.3701L12.9899 17.5001L2.62995 17.5101ZM13.7499 15.6301L13.6299 15.2301C12.9699 12.9701 12.4999 10.6401 12.2399 8.30008L12.1499 7.36008L12.0999 6.50008V6.21008H15.6499L15.7599 7.52008C15.8999 9.80008 16.2899 12.0601 16.9299 14.2601L17.3199 15.5801L13.7499 15.6301Z" fill="black"/>
<path d="M7.7999 14.7301C6.4799 14.7301 5.3999 13.6501 5.3999 12.3301V9.98008C5.3999 8.66008 6.4799 7.58008 7.7999 7.58008C8.3599 7.58008 8.8999 7.77008 9.3299 8.11008C9.7599 8.45008 10.0499 8.94008 10.1599 9.48008C10.1899 9.64008 10.1599 9.80008 10.0699 9.93008C9.9799 10.0601 9.8399 10.1601 9.6899 10.1901C9.6499 10.2001 9.6099 10.2001 9.5699 10.2001C9.2799 10.2001 9.0299 10.0001 8.9799 9.71008C8.8699 9.16008 8.3899 8.78008 7.8099 8.78008C7.1499 8.78008 6.6199 9.31008 6.6199 9.97008V12.3201C6.6199 12.9801 7.1499 13.5101 7.8099 13.5101C8.3699 13.5101 8.8399 13.1301 8.9699 12.5901C9.0299 12.3201 9.2799 12.1201 9.5599 12.1201C9.6099 12.1201 9.6499 12.1301 9.6999 12.1401C9.8599 12.1801 9.9899 12.2701 10.0799 12.4101C10.1599 12.5501 10.1899 12.7101 10.1499 12.8701C9.8699 13.9701 8.9099 14.7301 7.7999 14.7301Z" fill="black"/>
</svg>
