<svg width="20" height="20" viewBox="0 0 20 20" fill="none" xmlns="http://www.w3.org/2000/svg">
<path d="M18.3333 7.90189C15.5105 5.22676 11.7162 4.1688 8.125 4.72805" stroke="#333333" stroke-width="1.25" stroke-linecap="round" stroke-linejoin="round"/>
<path d="M15.8333 10.7494C14.7027 9.61873 13.3256 8.88489 11.875 8.54785" stroke="#333333" stroke-width="1.25" stroke-linecap="round" stroke-linejoin="round"/>
<path d="M4.1665 10.7496C4.71967 10.1964 5.33188 9.73821 5.9828 9.375" stroke="#333333" stroke-width="1.25" stroke-linecap="round" stroke-linejoin="round"/>
<path d="M6.6665 13.4638C7.266 12.8643 7.98675 12.46 8.74984 12.251" stroke="#333333" stroke-width="1.25" stroke-linecap="round" stroke-linejoin="round"/>
<path fill-rule="evenodd" clip-rule="evenodd" d="M10.0002 16.6663C10.5755 16.6663 11.0418 16.2 11.0418 15.6247C11.0418 15.0494 10.5755 14.583 10.0002 14.583C9.42487 14.583 8.9585 15.0494 8.9585 15.6247C8.9585 16.2 9.42487 16.6663 10.0002 16.6663Z" fill="#333333"/>
<path d="M16.6668 16.6663L3.3335 3.33301" stroke="#333333" stroke-width="1.25" stroke-linecap="round" stroke-linejoin="round"/>
<path d="M1.6665 7.90188C1.91184 7.66938 2.16451 7.44908 2.42376 7.24104C2.65251 7.05742 2.88638 6.88333 3.12483 6.71875" stroke="#333333" stroke-width="1.25" stroke-linecap="round" stroke-linejoin="round"/>
</svg>
