<svg width="20" height="20" viewBox="0 0 20 20" fill="none" xmlns="http://www.w3.org/2000/svg">
<path d="M12.8636 8.66113C12.5499 8.66113 12.2954 8.91568 12.2954 9.2293C12.2954 9.54291 12.5499 9.7975 12.8636 9.7975C13.1795 9.7975 13.4318 9.54295 13.4318 9.22932C13.4318 8.91568 13.1795 8.66113 12.8636 8.66113H12.8636Z" fill="black"/>
<path d="M18.5453 10.9337H17.4066C17.4066 10.8655 17.3976 10.7973 17.3726 10.7314L15.0998 4.76551C15.0157 4.54504 14.8044 4.39959 14.5703 4.39959H12.2953C12.1566 4.39959 12.0248 4.44959 11.9203 4.54051L11.243 5.13596L9.33844 2.63596C9.19527 2.44959 8.94981 2.37004 8.72707 2.43596L4.18162 3.76096C3.97254 3.82233 3.81572 3.99733 3.77936 4.21096L2.64297 10.8382C2.63842 10.8701 2.64523 10.9019 2.64523 10.9337H1.4998C1.18617 10.9337 0.931641 11.1882 0.931641 11.5019C0.931641 11.8155 1.18617 12.07 1.4998 12.07H2.40889L3.77254 15.0996C3.77254 15.3087 4.02707 15.4791 4.3407 15.4791H4.44525C4.38162 15.6564 4.34072 15.8473 4.34072 16.0473C4.34072 16.9905 5.10436 17.7519 6.04525 17.7519C6.98844 17.7519 7.74981 16.9905 7.74981 16.0473C7.74981 15.8473 7.70889 15.6564 7.64525 15.4791H12.3998C12.3362 15.6564 12.2953 15.8473 12.2953 16.0473C12.2953 16.9905 13.0589 17.7519 13.9998 17.7519C14.943 17.7519 15.7044 16.9905 15.7044 16.0473C15.7044 15.8473 15.6634 15.6564 15.5998 15.4791H15.7044C16.0203 15.4791 16.2725 15.3087 16.2725 15.0996L17.6362 12.07H18.5453C18.8612 12.07 19.1134 11.8155 19.1134 11.5019C19.1134 11.1882 18.8612 10.9337 18.5453 10.9337H18.5453ZM4.84072 4.75186L8.67025 3.63369L10.7066 6.30639C10.8021 6.43139 10.9453 6.51094 11.1021 6.52684C11.2544 6.53594 11.4135 6.49276 11.5316 6.38821L12.5066 5.53365H14.1748L16.2316 10.9314H3.78164L4.84072 4.75188V4.75186ZM6.04525 16.6155C5.73162 16.6155 5.47709 16.361 5.47709 16.0473C5.47709 15.7337 5.73162 15.4791 6.04525 15.4791C6.35889 15.4791 6.61344 15.7337 6.61344 16.0473C6.61344 16.3609 6.35889 16.6155 6.04527 16.6155H6.04525ZM13.9998 16.6155C13.6862 16.6155 13.4316 16.361 13.4316 16.0473C13.4316 15.7337 13.6862 15.4791 13.9998 15.4791C14.3134 15.4791 14.568 15.7337 14.568 16.0473C14.568 16.3609 14.3134 16.6155 13.9998 16.6155ZM15.3657 14.3428H4.67707L3.65436 12.07H16.3884L15.3657 14.3428Z" fill="black"/>
<path d="M8.15238 7.12506C7.92967 6.90232 7.57057 6.90232 7.34785 7.12506L6.21148 8.26143C5.98875 8.48414 5.98875 8.84324 6.21148 9.06598C6.4342 9.28869 6.7933 9.28869 7.01604 9.06598L7.75012 8.33188L8.4842 9.06598C8.59557 9.17732 8.74104 9.23188 8.88648 9.23188C9.03193 9.23188 9.17738 9.17732 9.28875 9.06598C9.51148 8.84324 9.51148 8.48414 9.28875 8.26143L8.15238 7.12506Z" fill="black"/>
</svg>
