<svg width="20" height="20" viewBox="0 0 20 20" fill="none" xmlns="http://www.w3.org/2000/svg">
<path d="M9.1665 3.33366V8.33366C9.1665 9.25412 7.48759 10.0003 5.4165 10.0003C3.34544 10.0003 1.6665 9.25412 1.6665 8.33366V3.33366M9.1665 3.33366C9.1665 4.25412 7.48759 5.00033 5.4165 5.00033C3.34544 5.00033 1.6665 4.25412 1.6665 3.33366M9.1665 3.33366C9.1665 2.41318 7.48759 1.66699 5.4165 1.66699C3.34544 1.66699 1.6665 2.41318 1.6665 3.33366M9.1665 5.83366C9.1665 6.75412 7.48759 7.50033 5.4165 7.50033C3.34544 7.50033 1.6665 6.75412 1.6665 5.83366M18.3332 11.667V16.667C18.3332 17.5875 16.6543 18.3337 14.5832 18.3337C12.5121 18.3337 10.8332 17.5875 10.8332 16.667V11.667M18.3332 11.667C18.3332 12.5875 16.6543 13.3337 14.5832 13.3337C12.5121 13.3337 10.8332 12.5875 10.8332 11.667M18.3332 11.667C18.3332 10.7465 16.6543 10.0003 14.5832 10.0003C12.5121 10.0003 10.8332 10.7465 10.8332 11.667M18.3332 14.167C18.3332 15.0875 16.6543 15.8337 14.5832 15.8337C12.5121 15.8337 10.8332 15.0875 10.8332 14.167M13.3332 2.50033H15.8332C16.7536 2.50033 17.4998 3.24652 17.4998 4.16699V6.66699M6.6665 17.5003H4.1665C3.24603 17.5003 2.49984 16.7541 2.49984 15.8337V13.3337" stroke="#333333" stroke-width="1.25" stroke-linecap="round" stroke-linejoin="round"/>
</svg>
