<svg width="20" height="20" viewBox="0 0 20 20" fill="none" xmlns="http://www.w3.org/2000/svg">
<path d="M18.3332 10.0003C18.3332 9.54008 17.9601 9.16699 17.4998 9.16699C17.0396 9.16699 16.6665 9.54008 16.6665 10.0003H18.3332ZM9.99984 3.33366C10.4601 3.33366 10.8332 2.96056 10.8332 2.50033C10.8332 2.04009 10.4601 1.66699 9.99984 1.66699V3.33366ZM16.2498 16.667H3.74984V18.3337H16.2498V16.667ZM3.33317 16.2503V3.75033H1.6665V16.2503H3.33317ZM16.6665 10.0003V16.2503H18.3332V10.0003H16.6665ZM3.74984 3.33366H9.99984V1.66699H3.74984V3.33366ZM3.74984 16.667C3.51972 16.667 3.33317 16.4805 3.33317 16.2503H1.6665C1.6665 17.4009 2.59924 18.3337 3.74984 18.3337V16.667ZM16.2498 18.3337C17.4004 18.3337 18.3332 17.4009 18.3332 16.2503H16.6665C16.6665 16.4805 16.48 16.667 16.2498 16.667V18.3337ZM3.33317 3.75033C3.33317 3.52021 3.51972 3.33366 3.74984 3.33366V1.66699C2.59925 1.66699 1.6665 2.59973 1.6665 3.75033H3.33317Z" fill="#333333"/>
<path d="M2.5 14.5835L6.95546 10.4993C7.26621 10.2144 7.74079 10.2065 8.06087 10.4809L13.3333 15.0002" stroke="#333333" stroke-width="1.25" stroke-linecap="round" stroke-linejoin="round"/>
<path d="M11.6665 12.9166L13.6555 10.9277C13.9487 10.6344 14.4129 10.6014 14.7447 10.8503L17.4998 12.9166" stroke="#333333" stroke-width="1.25" stroke-linecap="round" stroke-linejoin="round"/>
<path d="M13.3335 5.41699L15.4168 7.50033L17.5002 5.41699" stroke="#333333" stroke-width="1.25" stroke-linecap="round" stroke-linejoin="round"/>
<path d="M15.4165 2.5V7.5" stroke="#333333" stroke-width="1.25" stroke-linecap="round" stroke-linejoin="round"/>
</svg>
