<svg width="20" height="20" viewBox="0 0 20 20" fill="none" xmlns="http://www.w3.org/2000/svg">
<path d="M11.2498 16.6663H2.9165C2.22615 16.6663 1.6665 16.1067 1.6665 15.4163V4.58301C1.6665 3.89265 2.22615 3.33301 2.9165 3.33301H17.0832C17.7735 3.33301 18.3332 3.89265 18.3332 4.58301V9.99967" stroke="#333333" stroke-width="1.25" stroke-linecap="round" stroke-linejoin="round"/>
<path d="M14.1665 15L16.2498 17.0833L18.3332 15" stroke="#333333" stroke-width="1.25" stroke-linecap="round" stroke-linejoin="round"/>
<path d="M16.25 12.083V17.083" stroke="#333333" stroke-width="1.25" stroke-linecap="round" stroke-linejoin="round"/>
<path d="M1.6665 4.58301C1.6665 3.89265 2.22615 3.33301 2.9165 3.33301H17.0832C17.7735 3.33301 18.3332 3.89265 18.3332 4.58301V8.33301H1.6665V4.58301Z" stroke="#333333" stroke-width="1.25"/>
<path d="M3.33333 5.83366C3.33333 5.37342 3.70643 5.00033 4.16667 5.00033C4.6269 5.00033 5 5.37342 5 5.83366C5 6.2939 4.6269 6.66699 4.16667 6.66699C3.70643 6.66699 3.33333 6.2939 3.33333 5.83366Z" fill="#333333"/>
<path d="M5.83333 5.83366C5.83333 5.37342 6.20643 5.00033 6.66667 5.00033C7.1269 5.00033 7.5 5.37342 7.5 5.83366C7.5 6.2939 7.1269 6.66699 6.66667 6.66699C6.20643 6.66699 5.83333 6.2939 5.83333 5.83366Z" fill="#333333"/>
</svg>
