<svg width="20" height="20" viewBox="0 0 20 20" fill="none" xmlns="http://www.w3.org/2000/svg">
<path d="M9.99984 18.3337C14.6022 18.3337 18.3332 14.6027 18.3332 10.0003M9.99984 18.3337C5.39746 18.3337 1.6665 14.6027 1.6665 10.0003M9.99984 18.3337C11.8408 18.3337 13.3332 14.6027 13.3332 10.0003C13.3332 5.39795 11.8408 1.66699 9.99984 1.66699M9.99984 18.3337C8.15888 18.3337 6.6665 14.6027 6.6665 10.0003C6.6665 5.39795 8.15888 1.66699 9.99984 1.66699M18.3332 10.0003C18.3332 5.39795 14.6022 1.66699 9.99984 1.66699M18.3332 10.0003H1.6665M9.99984 1.66699C5.39746 1.66699 1.6665 5.39795 1.6665 10.0003M4.1073 4.2262C5.61534 5.73424 7.69867 6.66699 9.99984 6.66699C12.301 6.66699 14.3844 5.73424 15.8924 4.2262M15.8924 15.7744C14.3844 14.2664 12.301 13.3337 9.99984 13.3337C7.69867 13.3337 5.61534 14.2664 4.1073 15.7744" stroke="#333333" stroke-width="1.25" stroke-linecap="round" stroke-linejoin="round"/>
</svg>
