<svg width="20" height="20" viewBox="0 0 20 20" fill="none" xmlns="http://www.w3.org/2000/svg">
<path d="M7.94455 9.99938C7.94455 9.91858 7.92922 9.83856 7.89943 9.7639C7.86964 9.68925 7.82597 9.62141 7.77093 9.56427C7.71588 9.50714 7.65053 9.46181 7.57861 9.43089C7.50669 9.39996 7.42961 9.38405 7.35176 9.38405H5.57339C5.49554 9.38405 5.41846 9.39996 5.34654 9.43089C5.27462 9.46181 5.20927 9.50714 5.15423 9.56427C5.09918 9.62141 5.05551 9.68925 5.02572 9.7639C4.99593 9.83856 4.9806 9.91858 4.9806 9.99938C4.9806 10.0802 4.99593 10.1602 5.02572 10.2349C5.05551 10.3095 5.09918 10.3774 5.15423 10.4345C5.20927 10.4916 5.27462 10.537 5.34654 10.5679C5.41846 10.5988 5.49554 10.6147 5.57339 10.6147H7.35176C7.50898 10.6147 7.65976 10.5499 7.77093 10.4345C7.8821 10.3191 7.94455 10.1626 7.94455 9.99938ZM13.9116 6.56334C13.8675 6.60949 13.8428 6.67187 13.8428 6.73687V9.38405H9.72292C9.5657 9.38405 9.41492 9.44888 9.30375 9.56427C9.19258 9.67967 9.13013 9.83619 9.13013 9.99938C9.13013 10.1626 9.19258 10.3191 9.30375 10.4345C9.41492 10.5499 9.5657 10.6147 9.72292 10.6147H13.8428V13.305C13.8428 13.3536 13.8566 13.4012 13.8826 13.4416C13.9086 13.4821 13.9455 13.5137 13.9888 13.5324C14.032 13.5511 14.0796 13.5561 14.1256 13.5467C14.1716 13.5373 14.2139 13.514 14.2471 13.4797L17.4102 10.1963C17.4324 10.1734 17.4501 10.1462 17.4621 10.1162C17.4742 10.0862 17.4804 10.054 17.4804 10.0215C17.4804 9.98904 17.4742 9.95687 17.4621 9.92688C17.4501 9.89688 17.4324 9.86966 17.4102 9.84678L14.2471 6.56334C14.2251 6.54046 14.1989 6.5223 14.1701 6.50992C14.1413 6.49753 14.1105 6.49115 14.0793 6.49115C14.0482 6.49115 14.0173 6.49753 13.9885 6.50992C13.9597 6.5223 13.9336 6.54046 13.9116 6.56334ZM16.3456 17.3145L17.9402 13.9646C18.0087 13.8186 18.0188 13.6503 17.9682 13.4965C17.9177 13.3428 17.8106 13.216 17.6704 13.1439C17.5302 13.0717 17.3682 13.0601 17.2197 13.1115C17.0712 13.1629 16.9484 13.2731 16.8779 13.4182L15.2833 16.7681H5.96819L3.23543 9.99938L5.96819 3.23068H15.2833L16.8779 6.57934C16.9513 6.7185 17.0736 6.82285 17.2194 6.87061C17.3651 6.91837 17.523 6.90585 17.6601 6.83566C17.7972 6.76548 17.9028 6.64304 17.955 6.49393C18.0072 6.34481 18.0019 6.18053 17.9402 6.03538L16.3456 2.68549C16.2482 2.47935 16.097 2.30577 15.9092 2.18457C15.7213 2.06336 15.5045 1.99941 15.2833 2H5.96819C5.73452 1.99938 5.50593 2.07072 5.31135 2.20501C5.11676 2.33931 4.96494 2.5305 4.87508 2.75441L2.04629 9.76309C2.01574 9.83848 2 9.91944 2 10.0012C2 10.083 2.01574 10.164 2.04629 10.2394L4.8739 17.2456C5.05766 17.7034 5.4904 18.0012 5.96819 18H15.2833C15.5043 18.0007 15.7211 17.9369 15.9089 17.816C16.0968 17.695 16.248 17.5216 16.3456 17.3157V17.3145Z" fill="#333333"/>
</svg>
