<svg width="20" height="20" viewBox="0 0 20 20" fill="none" xmlns="http://www.w3.org/2000/svg">
<path d="M6.66667 2.5H3.33333C2.8731 2.5 2.5 2.8731 2.5 3.33333V6.66667" stroke="#333333" stroke-width="1.25" stroke-linecap="round" stroke-linejoin="round"/>
<path d="M6.66667 17.4997H3.33333C2.8731 17.4997 2.5 17.1266 2.5 16.6663V13.333" stroke="#333333" stroke-width="1.25" stroke-linecap="round" stroke-linejoin="round"/>
<path d="M13.3335 17.4997H16.6668C17.1271 17.4997 17.5002 17.1266 17.5002 16.6663V13.333" stroke="#333333" stroke-width="1.25" stroke-linecap="round" stroke-linejoin="round"/>
<path d="M13.3335 2.5H16.6668C17.1271 2.5 17.5002 2.8731 17.5002 3.33333V6.66667" stroke="#333333" stroke-width="1.25" stroke-linecap="round" stroke-linejoin="round"/>
<path d="M10.0002 12.9163C11.611 12.9163 12.9168 11.6105 12.9168 9.99967C12.9168 8.38884 11.611 7.08301 10.0002 7.08301C8.38933 7.08301 7.0835 8.38884 7.0835 9.99967C7.0835 11.6105 8.38933 12.9163 10.0002 12.9163Z" stroke="#333333" stroke-width="1.25" stroke-miterlimit="10" stroke-linecap="round" stroke-linejoin="round"/>
<path d="M10 7.08366V5.41699" stroke="#333333" stroke-width="1.25" stroke-miterlimit="10" stroke-linecap="round" stroke-linejoin="round"/>
<path d="M10 14.5837V12.917" stroke="#333333" stroke-width="1.25" stroke-miterlimit="10" stroke-linecap="round" stroke-linejoin="round"/>
<path d="M14.5832 10H12.9165" stroke="#333333" stroke-width="1.25" stroke-miterlimit="10" stroke-linecap="round" stroke-linejoin="round"/>
<path d="M7.08317 10H5.4165" stroke="#333333" stroke-width="1.25" stroke-miterlimit="10" stroke-linecap="round" stroke-linejoin="round"/>
<path d="M9.99984 10.8337C10.4601 10.8337 10.8332 10.4606 10.8332 10.0003C10.8332 9.54008 10.4601 9.16699 9.99984 9.16699C9.53959 9.16699 9.1665 9.54008 9.1665 10.0003C9.1665 10.4606 9.53959 10.8337 9.99984 10.8337Z" fill="#333333"/>
</svg>
