<svg width="20" height="20" viewBox="0 0 20 20" fill="none" xmlns="http://www.w3.org/2000/svg">
<path d="M11.6389 4.72222H8.36117C8.05561 4.72222 7.77783 4.47222 7.77783 4.13889V3.05556C7.77783 2.75 8.02783 2.5 8.36117 2.5H11.6667C11.9723 2.5 12.2501 2.75 12.2501 3.08333V4.16667C12.2223 4.47222 11.9723 4.72222 11.6389 4.72222Z" fill="#333333"/>
<path d="M13.8333 4.16699H6.16667C5.52778 4.16699 5 4.66699 5 5.25033V16.3892C5 17.0003 5.52778 17.4725 6.16667 17.4725H13.8056C14.4444 17.4725 14.9722 16.9725 14.9722 16.3892V5.25033C15 4.66699 14.4722 4.16699 13.8333 4.16699ZM8.41667 7.88921L9.97222 5.38921C10.1111 5.13921 10.5278 5.2781 10.5 5.55588L10.3056 7.61144H11.3333C11.5556 7.61144 11.6944 7.83366 11.5833 8.00033L10.0278 10.5003C9.88889 10.7503 9.47222 10.6114 9.5 10.3337L9.69444 8.2781H8.66667C8.44444 8.2781 8.30556 8.05588 8.41667 7.88921ZM12.7778 15.8337H7.22222C6.91667 15.8337 6.66667 15.5837 6.66667 15.2781C6.66667 14.9725 6.91667 14.7225 7.22222 14.7225H12.7778C13.0833 14.7225 13.3333 14.9725 13.3333 15.2781C13.3333 15.5837 13.0833 15.8337 12.7778 15.8337ZM12.7778 13.0559H7.22222C6.91667 13.0559 6.66667 12.8059 6.66667 12.5003C6.66667 12.1948 6.91667 11.9448 7.22222 11.9448H12.7778C13.0833 11.9448 13.3333 12.1948 13.3333 12.5003C13.3333 12.8059 13.0833 13.0559 12.7778 13.0559Z" fill="#333333"/>
</svg>
