<svg width="20" height="20" viewBox="0 0 20 20" fill="none" xmlns="http://www.w3.org/2000/svg">
<g clip-path="url(#clip0_327_33953)">
<path d="M19.925 11.1855L18.2414 3.90039L18.2336 3.86523C17.923 2.83398 16.9855 2.11523 15.9094 2.08398H4.25312C2.51874 2.08398 1.88593 3.7793 1.85859 3.85156L1.84492 3.89258C1.83125 3.94531 0.505073 9.24414 0.110542 11.1895C-0.104302 12.1094 -0.00664555 12.875 0.40937 13.4609C1.03437 14.3477 2.13984 14.4492 2.18476 14.4531L17.7805 14.457L17.8078 14.4512C18.6164 14.3418 19.2141 13.9961 19.5891 13.4316C20.2258 12.4707 19.9387 11.2344 19.925 11.1855ZM2.24726 13.3457C2.11835 13.3281 1.57148 13.2227 1.28242 12.8105C1.06171 12.498 1.0207 12.0391 1.15937 11.4473C1.53632 9.59766 2.74531 4.74023 2.88007 4.21094C2.95429 4.02344 3.35273 3.1875 4.25507 3.1875H15.9328C15.9211 3.1875 16.8684 3.20117 17.1984 4.17969L18.8762 11.4414C18.9309 11.6738 18.9973 12.3574 18.6965 12.8105C18.6242 12.918 18.4113 13.2402 17.7043 13.3496L2.24726 13.3457ZM10.8059 16.4648L14.1379 17.1406V17.918H6.01289V17.1426L9.19843 16.4727V15.0527H10.8059V16.4648ZM3.59296 4.13281L4.45624 3.55859H8.98554L9.64375 4.13281V6.67773L8.94453 7.33398H3.59296L3.01484 6.5957L3.59296 4.13281ZM2.57539 8.6582L3.58515 7.79492H8.87421L9.64179 8.6582V11.8184L8.82539 12.5859H2.57539L1.90156 11.7246L2.57539 8.6582ZM16.5383 4.13281L16.9855 6.59375L16.4113 7.33203H11.0578L10.3586 6.67578V4.13281L11.0168 3.55859H15.673L16.5383 4.13281ZM17.425 8.6582L18.0988 11.7246L17.425 12.584H11.175L10.3586 11.8164V8.6582L11.1281 7.79492H16.4172L17.425 8.6582Z" fill="black"/>
</g>
<defs>
<clipPath id="clip0_327_33953">
<rect width="20" height="20" fill="white"/>
</clipPath>
</defs>
</svg>
