<svg width="20" height="20" viewBox="0 0 20 20" fill="none" xmlns="http://www.w3.org/2000/svg">
<path d="M12.0832 17.5H7.9165C7.6665 17.5 7.49984 17.6667 7.49984 17.9167C7.49984 18.1667 7.6665 18.3333 7.9165 18.3333H12.0832C12.3332 18.3333 12.4998 18.1667 12.4998 17.9167C12.4998 17.6667 12.3332 17.5 12.0832 17.5ZM12.9165 15.8333H7.08317C6.83317 15.8333 6.6665 16 6.6665 16.25C6.6665 16.5 6.83317 16.6667 7.08317 16.6667H12.9165C13.1665 16.6667 13.3332 16.5 13.3332 16.25C13.3332 16 13.1665 15.8333 12.9165 15.8333ZM9.99984 0C6.08317 0 2.9165 3.08333 2.9165 6.83333C2.9165 8.83333 3.83317 10.7083 5.37484 12C5.70817 12.25 5.87484 12.6667 5.87484 13.0833V13.6667C5.87484 14.4167 6.49984 15.0417 7.20817 15.0417H12.7498C13.4998 15.0417 14.0832 14.4167 14.0832 13.6667V13.0833C14.0832 12.6667 14.2498 12.2917 14.5832 12C16.1248 10.7083 17.0415 8.83333 17.0415 6.83333C17.0832 3.08333 13.9165 0 9.99984 0ZM14.5415 7.66667C14.3332 7.66667 14.1665 7.5 14.1665 7.29167C14.1248 6.20833 13.6665 5.08333 12.9165 4.25C12.4165 3.70833 11.5415 3.04167 10.2915 3.04167C10.0832 3.04167 9.87484 2.875 9.87484 2.625C9.87484 2.375 10.0415 2.20833 10.2915 2.20833C11.4998 2.20833 12.6248 2.70833 13.4998 3.66667C14.3748 4.625 14.9165 5.95833 14.9582 7.25C14.9998 7.45833 14.7915 7.66667 14.5415 7.66667ZM11.2498 19.1667H8.74984C8.49984 19.1667 8.33317 19.3333 8.33317 19.5833C8.33317 19.8333 8.49984 20 8.74984 20H11.2498C11.4998 20 11.6665 19.8333 11.6665 19.5833C11.6665 19.3333 11.4998 19.1667 11.2498 19.1667Z" fill="#666767"/>
</svg>
