<svg width="20" height="20" viewBox="0 0 20 20" fill="none" xmlns="http://www.w3.org/2000/svg">
<path d="M2.125 5.475L5.4625 8.575L2.875 17.6625L4.125 18.01L4.555 16.5025L10.0625 13.5725L15.5188 16.475L15.9987 18.125L17.2487 17.7775L15.2275 10.825L15.25 10.8125L15.2 10.7275L14.565 8.54625L17.8762 5.47125L17.7513 5.355V4.3125H13.3325L12.625 1.87875V1.875H7.375L6.68 4.3125H2.125V5.475ZM8.39125 3.03625H11.61L11.98 4.31125H8.0275L8.39 3.03625H8.39125ZM16.1238 5.47375L14.2475 7.215H14.1762L13.6688 5.4725H16.125L16.1238 5.47375ZM5.74875 7.215L3.875 5.4725H6.34875L5.8525 7.215H5.75H5.74875ZM12.8237 7.215H7.2L7.69625 5.4725H12.3175L12.825 7.215H12.8237ZM10.0625 12.1962L6.345 10.2188L6.87 8.375H13.1613L13.7087 10.255L10.0612 12.1962H10.0625ZM8.77 12.8837L5.0175 14.8812L6.005 11.4137L8.77 12.885V12.8837ZM15.045 14.8462L11.3575 12.8837L14.0575 11.4462L15.045 14.8462Z" fill="black"/>
</svg>
