<svg width="20" height="20" viewBox="0 0 20 20" fill="none" xmlns="http://www.w3.org/2000/svg">
<path d="M16.4634 4.13387L16.4025 4.13477L16.4015 4.13567C16.1515 4.14321 15.9052 4.19709 15.6749 4.29457V3.34727C15.6749 2.23067 14.7665 1.32227 13.6499 1.32227C13.3087 1.32227 12.9766 1.40757 12.6794 1.57037C12.3524 0.854266 11.6336 0.384766 10.8374 0.384766C10.0404 0.384766 9.32158 0.854165 8.99528 1.57017C8.69787 1.40709 8.36407 1.32182 8.02488 1.32227C6.90828 1.32227 5.99988 2.23067 5.99988 3.34727V9.69936L5.01948 8.00007C4.75538 7.51937 4.32358 7.17637 3.80338 7.03407C3.55441 6.96655 3.29438 6.94995 3.03884 6.98526C2.7833 7.02057 2.53752 7.10706 2.31618 7.23956C1.39978 7.78917 1.05038 9.03007 1.53688 10.005L1.54598 10.0235C1.71368 10.3658 2.38848 11.7379 4.03118 15.0216C4.92218 16.8029 5.90318 18.0781 6.94678 18.8121C7.78768 19.4038 8.38378 19.4338 8.49468 19.4338H13.1822C14.013 19.4338 14.7855 19.1641 15.4786 18.632C16.1222 18.1371 16.679 17.4245 17.1339 16.514C18.02 14.7415 18.4885 12.2953 18.4885 9.43997V6.15887C18.4884 5.04227 17.58 4.13387 16.4634 4.13387ZM9.43208 10.0599C9.59613 10.0597 9.75341 9.99442 9.8694 9.87841C9.98539 9.7624 10.0506 9.60511 10.0508 9.44106V2.40987C10.0508 1.97567 10.4041 1.62237 10.8384 1.62237C11.2727 1.62237 11.6259 1.97567 11.6259 2.40987V9.44116C11.6259 9.78236 11.9034 10.06 12.2447 10.06C12.586 10.06 12.8635 9.78236 12.8635 9.44116V3.34737C12.8635 2.91317 13.2167 2.55987 13.651 2.55987C14.0853 2.55987 14.4385 2.91317 14.4385 3.34737V10.3787C14.4385 10.7199 14.716 10.9975 15.0573 10.9975C15.3986 10.9975 15.6761 10.72 15.6761 10.3787V6.15986C15.6761 5.72567 16.0293 5.37237 16.4636 5.37237C16.8979 5.37237 17.2511 5.72567 17.2511 6.15986L17.2501 9.44116C17.2501 12.1057 16.8271 14.3601 16.0266 15.961C15.5164 16.9812 14.6086 18.1974 13.1814 18.1974H8.51028C8.46738 18.1924 8.10698 18.1396 7.56628 17.7351C6.98508 17.2999 6.09188 16.3801 5.13738 14.4694C3.41308 11.0206 2.76498 9.70047 2.65258 9.47077L2.64008 9.44017L2.63538 9.43556C2.44878 9.03417 2.59108 8.52026 2.95338 8.30316C3.03157 8.25635 3.11839 8.22576 3.20866 8.21324C3.29893 8.20071 3.3908 8.2065 3.47878 8.23027C3.67288 8.28327 3.83558 8.41457 3.93698 8.59997L5.40598 11.1454C5.68978 11.664 6.01818 11.9268 6.38208 11.9268C6.44568 11.9268 6.51058 11.9185 6.57478 11.9022C7.01498 11.7905 7.23818 11.3766 7.23818 10.6721V3.34737C7.23818 2.91317 7.59148 2.55987 8.02568 2.55987C8.45988 2.55987 8.81318 2.91317 8.81318 3.34737V9.44116C8.81342 9.60522 8.87871 9.76248 8.99473 9.87846C9.11075 9.99444 9.26803 10.0597 9.43208 10.0599Z" fill="black"/>
</svg>
