<svg width="20" height="20" viewBox="0 0 20 20" fill="none" xmlns="http://www.w3.org/2000/svg">
<path d="M6.25 12.5H8.75V15H6.25V12.5Z" fill="#7F94A9"/>
<path d="M18.1249 9.37518L10.7499 3.25018C10.4999 2.87518 9.99992 2.75018 9.49992 3.00018C9.37492 3.00018 9.37492 3.12518 9.24992 3.12518L1.99992 9.25018C1.62492 9.62518 1.62492 10.1252 1.87492 10.5002C2.24992 10.8752 2.74992 10.8752 3.12492 10.6252L3.24992 10.5002L3.74992 10.0002V17.0002C3.87492 18.0002 4.62492 18.7502 5.62492 18.6252H14.3749C15.3749 18.6252 16.1249 17.8752 16.2499 17.0002V10.1252L16.8749 10.6252C17.2499 11.0002 17.7499 11.0002 18.1249 10.6252C18.3749 10.2502 18.4999 9.75018 18.1249 9.37518ZM14.9999 10.0002V17.1252C14.9999 17.3752 14.7499 17.6252 14.4999 17.5002H13.7499V12.5002H9.99992V17.5002H5.49992C5.24992 17.5002 4.99992 17.3752 4.99992 17.1252V10.0002H3.87492L9.99992 4.87518L16.1249 10.0002H14.9999Z" fill="#7F94A9"/>
</svg>
