<svg width="20" height="20" viewBox="0 0 20 20" fill="none" xmlns="http://www.w3.org/2000/svg">
<path d="M9.99984 18.3337C12.301 18.3337 14.3843 17.4009 15.8924 15.8929C17.4004 14.3848 18.3332 12.3015 18.3332 10.0003C18.3332 7.69916 17.4004 5.61583 15.8924 4.10777C14.3843 2.59973 12.301 1.66699 9.99984 1.66699C7.69867 1.66699 5.61534 2.59973 4.10728 4.10777C2.59925 5.61583 1.6665 7.69916 1.6665 10.0003C1.6665 12.3015 2.59925 14.3848 4.10728 15.8929C5.61534 17.4009 7.69867 18.3337 9.99984 18.3337Z" fill="#333333" stroke="#333333" stroke-width="1.25" stroke-linejoin="round"/>
<path fill-rule="evenodd" clip-rule="evenodd" d="M10.0002 4.58301C10.5755 4.58301 11.0418 5.04938 11.0418 5.62467C11.0418 6.19997 10.5755 6.66634 10.0002 6.66634C9.42487 6.66634 8.9585 6.19997 8.9585 5.62467C8.9585 5.04938 9.42487 4.58301 10.0002 4.58301Z" fill="white"/>
<path d="M10.2083 14.1663V8.33301H9.79167H9.375" stroke="white" stroke-width="1.25" stroke-linecap="round" stroke-linejoin="round"/>
<path d="M8.75 14.167H11.6667" stroke="white" stroke-width="1.25" stroke-linecap="round" stroke-linejoin="round"/>
</svg>
