<svg width="20" height="20" viewBox="0 0 20 20" fill="none" xmlns="http://www.w3.org/2000/svg">
<path d="M7.5 2.5H14.1667V5H7.5V2.5Z" fill="#333333" stroke="#333333" stroke-width="1.25" stroke-linecap="round" stroke-linejoin="round"/>
<path d="M7.5 8.75H15.8333V11.25H7.5V8.75Z" fill="#333333" stroke="#333333" stroke-width="1.25" stroke-linecap="round" stroke-linejoin="round"/>
<path d="M7.5 15H18.3333V17.5H7.5V15Z" fill="#333333" stroke="#333333" stroke-width="1.25" stroke-linecap="round" stroke-linejoin="round"/>
<path d="M3.33333 4.58366C3.79357 4.58366 4.16667 4.21056 4.16667 3.75033C4.16667 3.29009 3.79357 2.91699 3.33333 2.91699C2.8731 2.91699 2.5 3.29009 2.5 3.75033C2.5 4.21056 2.8731 4.58366 3.33333 4.58366Z" fill="#333333" stroke="#333333" stroke-width="1.25"/>
<path d="M3.33333 10.8337C3.79357 10.8337 4.16667 10.4606 4.16667 10.0003C4.16667 9.54009 3.79357 9.16699 3.33333 9.16699C2.8731 9.16699 2.5 9.54009 2.5 10.0003C2.5 10.4606 2.8731 10.8337 3.33333 10.8337Z" fill="#333333" stroke="#333333" stroke-width="1.25"/>
<path d="M3.33333 17.0837C3.79357 17.0837 4.16667 16.7106 4.16667 16.2503C4.16667 15.7901 3.79357 15.417 3.33333 15.417C2.8731 15.417 2.5 15.7901 2.5 16.2503C2.5 16.7106 2.8731 17.0837 3.33333 17.0837Z" fill="#333333" stroke="#333333" stroke-width="1.25"/>
</svg>
