<svg width="20" height="20" viewBox="0 0 20 20" fill="none" xmlns="http://www.w3.org/2000/svg">
<path d="M18.0365 17.65H10.2965C9.9865 17.6467 9.6865 17.5867 9.40317 17.4733C9.10113 17.3537 8.82575 17.1755 8.59291 16.9489C8.36007 16.7224 8.17437 16.452 8.0465 16.1533C7.91766 15.8556 7.84898 15.5353 7.8444 15.211C7.83982 14.8866 7.89945 14.5645 8.01984 14.2633C8.14152 13.9559 8.33936 13.6845 8.59475 13.4746C8.85014 13.2647 9.15471 13.1232 9.47984 13.0633L10.4265 12.8833C11.0065 12.7744 11.5373 12.4851 11.9432 12.0567C12.5632 11.4033 12.9065 10.55 12.9132 9.64998C12.9132 9.13665 13.0165 8.61998 13.2098 8.13998L10.8132 8.25332C10.174 8.32964 9.5731 8.59813 9.08984 9.02332C8.45369 9.58736 8.05374 10.3706 7.96984 11.2167L8.01317 11.17C8.5265 10.5933 9.18317 10.1367 9.9065 9.85332L10.5698 9.58998C10.7965 9.49998 11.0532 9.58665 11.1798 9.79665C11.3065 10.0067 11.2665 10.2733 11.0832 10.4333L10.2232 11.1867C9.92984 11.4633 9.63984 11.7733 9.3765 12.1C8.83505 12.7699 8.36579 13.495 7.9765 14.2633C7.8665 14.4767 7.67984 14.9267 7.54984 15.2467C6.9665 16.7 5.57317 17.64 4.0065 17.6433H1.96317C1.75188 17.6433 1.54925 17.5594 1.39984 17.41C1.25044 17.2606 1.1665 17.0579 1.1665 16.8467C1.1665 16.6354 1.25044 16.4327 1.39984 16.2833C1.54925 16.1339 1.75188 16.05 1.96317 16.05H3.27317C3.42317 16.05 3.5465 15.9267 3.5465 15.7767V8.73998C3.5465 8.70332 3.53984 8.67332 3.52317 8.64998C3.50058 8.61158 3.46368 8.5837 3.42057 8.57245C3.37746 8.5612 3.33164 8.56751 3.29317 8.58998L2.8065 8.86998L2.71317 8.91665C2.44984 9.03665 2.14984 9.04665 1.8765 8.94332C1.60317 8.83998 1.3865 8.63665 1.2665 8.36998C1.04984 7.83998 1.24984 7.24998 1.72317 6.96998L8.35984 2.13665C8.37317 2.12665 8.38984 2.11665 8.40317 2.10665C8.88681 1.8282 9.4351 1.68164 9.99317 1.68164C10.5512 1.68164 11.0995 1.8282 11.5832 2.10665C11.5998 2.11665 11.6132 2.12332 11.6265 2.13665L18.2698 6.96998C18.5037 7.10831 18.6793 7.32692 18.7639 7.5851C18.8485 7.84327 18.8364 8.1234 18.7298 8.37332C18.7098 8.41665 18.6932 8.44665 18.6765 8.47665C18.5309 8.72702 18.2921 8.9096 18.0123 8.98454C17.7325 9.05948 17.4345 9.0207 17.1832 8.87665L16.6998 8.59665C16.5998 8.53998 16.4498 8.61998 16.4498 8.74332V15.7833C16.4498 15.9333 16.5732 16.0567 16.7232 16.0567H18.0332C18.4732 16.0567 18.8298 16.4133 18.8298 16.8533C18.8298 17.2933 18.4765 17.65 18.0365 17.65ZM13.6798 7.12332C13.8365 7.12332 13.9998 7.18332 14.1298 7.29332C14.2458 7.39039 14.328 7.52176 14.3645 7.66853C14.4011 7.81529 14.3901 7.96986 14.3332 8.10998C14.3298 8.11998 14.3232 8.12998 14.3198 8.14332L14.2165 8.35665C14.0219 8.76362 13.9205 9.20888 13.9198 9.65998C13.9145 10.8108 13.4698 11.9162 12.6765 12.75C12.1267 13.3314 11.4066 13.7236 10.6198 13.87L9.6665 14.05C9.33984 14.11 9.07317 14.33 8.95317 14.6367C8.65317 15.39 9.02317 16.2467 9.77317 16.5467C9.94317 16.6133 10.1198 16.65 10.3032 16.65H15.7965C15.5832 16.4233 15.4532 16.1167 15.4532 15.78V8.73998C15.4532 8.09665 15.9765 7.57332 16.6198 7.57332C16.8232 7.57332 17.0232 7.62665 17.2032 7.72998L17.6865 8.00998C17.7298 8.03332 17.7898 8.01998 17.8132 7.97332C17.8365 7.92332 17.8132 7.85998 17.7565 7.82998C17.7398 7.81998 17.7198 7.80998 17.7032 7.79665L11.0632 2.96332C10.7371 2.78133 10.3699 2.6858 9.9965 2.6858C9.6231 2.6858 9.2559 2.78133 8.92984 2.96332L2.29317 7.79332C2.2765 7.80665 2.2565 7.81665 2.23984 7.82665C2.1865 7.85332 2.1665 7.91665 2.1865 7.97332C2.19317 7.98665 2.2165 7.99998 2.23317 8.00665C2.24984 8.01332 2.2765 8.01665 2.3065 8.00332L2.78984 7.72332C3.05317 7.56665 3.36984 7.52332 3.66984 7.59998C3.97317 7.67665 4.2265 7.86665 4.38317 8.13665C4.48984 8.31998 4.5465 8.52998 4.5465 8.74332V15.78C4.5465 16.1133 4.41984 16.4133 4.20984 16.64C4.73738 16.6033 5.24384 16.4184 5.67082 16.1064C6.09781 15.7944 6.42794 15.3681 6.62317 14.8767C6.8465 14.3267 6.98984 14 7.0865 13.81C7.28317 13.4233 7.49984 13.0433 7.7365 12.6733H7.7265C7.54885 12.6842 7.37368 12.6273 7.23634 12.5141C7.099 12.4009 7.00972 12.2398 6.9865 12.0633C6.81984 10.6367 7.35984 9.22332 8.42984 8.27665C9.07317 7.70998 9.86317 7.35998 10.7165 7.26332C10.7265 7.26332 10.7398 7.25998 10.7498 7.25998L13.6232 7.12332C13.6432 7.12665 13.6598 7.12332 13.6798 7.12332ZM13.6932 8.12332H13.6698C13.6765 8.12665 13.6832 8.12332 13.6932 8.12332Z" fill="#333333"/>
</svg>
