<svg width="20" height="20" viewBox="0 0 20 20" fill="none" xmlns="http://www.w3.org/2000/svg">
<path d="M15 4.375C15.1658 4.375 15.3248 4.44085 15.442 4.55806C15.5592 4.67527 15.625 4.83424 15.625 5V15C15.625 15.1658 15.5592 15.3247 15.442 15.4419C15.3248 15.5592 15.1658 15.625 15 15.625C14.8343 15.625 14.6753 15.5592 14.5581 15.4419C14.4409 15.3247 14.375 15.1658 14.375 15V5C14.375 4.83424 14.4409 4.67527 14.5581 4.55806C14.6753 4.44085 14.8343 4.375 15 4.375ZM7.45439 4.9875L11.7519 8.56875C11.9631 8.74471 12.1331 8.96498 12.2497 9.21393C12.3663 9.46289 12.4268 9.73445 12.4268 10.0094C12.4268 10.2843 12.3663 10.5559 12.2497 10.8048C12.1331 11.0538 11.9631 11.274 11.7519 11.45L7.45439 15.0312C7.1806 15.2593 6.84749 15.4046 6.49408 15.4502C6.14068 15.4957 5.78161 15.4396 5.45893 15.2884C5.13626 15.1373 4.86334 14.8973 4.67215 14.5966C4.48096 14.2959 4.37941 13.947 4.37939 13.5906V6.42812C4.37941 6.0718 4.48096 5.72285 4.67215 5.42215C4.86334 5.12146 5.13626 4.88147 5.45893 4.7303C5.78161 4.57913 6.14068 4.52304 6.49408 4.56859C6.84749 4.61414 7.1806 4.75945 7.45439 4.9875ZM5.77377 6.02813C5.68014 6.1404 5.62884 6.28194 5.62877 6.42812V13.5906C5.62881 13.7094 5.66269 13.8257 5.72644 13.9259C5.79019 14.0261 5.88116 14.106 5.98871 14.1564C6.09626 14.2068 6.21593 14.2254 6.33372 14.2103C6.4515 14.1951 6.56252 14.1466 6.65377 14.0706L10.9513 10.4894C11.0683 10.392 11.1457 10.2553 11.1691 10.1049C11.1924 9.95451 11.1601 9.80076 11.0781 9.6725L11.0313 9.60875C11.0071 9.57972 10.9803 9.55294 10.9513 9.52875L6.65377 5.9475C6.52637 5.84153 6.3621 5.7905 6.19708 5.80562C6.03206 5.82074 5.87979 5.90077 5.77377 6.02813Z" fill="black"/>
</svg>
