<svg width="20" height="20" viewBox="0 0 20 20" fill="none" xmlns="http://www.w3.org/2000/svg">
<path d="M10.0002 8.33333C11.611 8.33333 12.9168 7.0275 12.9168 5.41667C12.9168 3.80584 11.611 2.5 10.0002 2.5C8.38933 2.5 7.0835 3.80584 7.0835 5.41667C7.0835 7.0275 8.38933 8.33333 10.0002 8.33333Z" fill="#333333" stroke="#333333" stroke-width="1.25" stroke-linecap="round" stroke-linejoin="round"/>
<path d="M2.5 17.0003V17.5003H17.5V17.0003C17.5 15.1335 17.5 14.2001 17.1367 13.487C16.8171 12.8598 16.3072 12.3499 15.68 12.0303C14.9669 11.667 14.0335 11.667 12.1667 11.667H7.83333C5.9665 11.667 5.03308 11.667 4.32004 12.0303C3.69283 12.3499 3.18289 12.8598 2.86331 13.487C2.5 14.2001 2.5 15.1335 2.5 17.0003Z" fill="#333333" stroke="#333333" stroke-width="1.25" stroke-linecap="round" stroke-linejoin="round"/>
</svg>
