<svg width="20" height="20" viewBox="0 0 20 20" fill="none" xmlns="http://www.w3.org/2000/svg">
<path d="M16.6286 7.4125C16.6286 5.64336 15.1893 4.2041 13.4202 4.2041C11.9206 4.2041 10.6018 5.26641 10.2846 6.73027C10.2719 6.78906 10.2717 6.84707 10.2788 6.90352H3.2481C2.79185 6.90352 2.40865 7.23066 2.33697 7.68125L1.26002 14.4598C1.23902 14.5915 1.24689 14.7263 1.28307 14.8547C1.31925 14.9831 1.38289 15.1021 1.46959 15.2035C1.55612 15.305 1.66367 15.3866 1.7848 15.4424C1.90593 15.4983 2.03775 15.5272 2.17115 15.5271H6.67623V16.8514H4.88443C4.59673 16.8514 4.36353 17.0846 4.36353 17.3723C4.36353 17.66 4.59673 17.8932 4.88443 17.8932H11.0231C11.3108 17.8932 11.544 17.66 11.544 17.3723C11.544 17.0846 11.3108 16.8514 11.0231 16.8514H9.2313V15.5271H13.7364C13.8698 15.5272 14.0016 15.4983 14.1227 15.4425C14.2438 15.3866 14.3514 15.3052 14.4379 15.2037C14.5247 15.1023 14.5883 14.9832 14.6245 14.8548C14.6607 14.7263 14.6687 14.5916 14.6477 14.4598L14.0284 10.5623C15.5114 10.2752 16.6286 8.95449 16.6286 7.4125ZM6.56627 14.4854L6.64517 12.9244H9.26197L9.34088 14.4854H6.56627ZM6.69771 11.8824L6.76509 10.5484H9.14185L9.20923 11.8824H6.69771ZM5.65455 11.8824H2.72447L2.93638 10.5484H5.72193L5.65455 11.8824ZM6.81783 9.50664L6.89673 7.9457H9.01041L9.08931 9.50664H6.81783ZM10.185 10.5484H12.9708L13.1827 11.8824H10.2524L10.185 10.5484ZM10.1325 9.50664L10.0536 7.9457H12.5573L12.8053 9.50664H10.1325ZM3.35005 7.9457H5.85357L5.77466 9.50664H3.10201L3.35005 7.9457ZM2.55884 12.9244H5.60181L5.52291 14.4854H2.3108L2.55884 12.9244ZM8.18912 16.8514H7.71783V15.5271H8.18912V16.8514ZM10.384 14.4854L10.3051 12.9244H13.3483L13.5963 14.4854H10.384ZM13.8639 9.53125L13.57 7.68145C13.4983 7.23086 13.1151 6.90371 12.659 6.90371H11.3153C11.5473 5.94063 12.4239 5.24609 13.4202 5.24609C14.6149 5.24609 15.5868 6.21797 15.5868 7.4125C15.5868 8.44219 14.8487 9.32441 13.8639 9.53125Z" fill="black"/>
<path d="M16.6358 9.80508C16.4325 9.60156 16.1024 9.60156 15.8993 9.80508C15.6958 10.0084 15.6958 10.3383 15.8993 10.5416L16.488 11.1303C16.5896 11.232 16.7229 11.2828 16.8563 11.2828C16.9896 11.2828 17.1229 11.232 17.2247 11.1303C17.4282 10.927 17.4282 10.5971 17.2247 10.3938L16.6358 9.80508ZM18.2304 6.85059H17.3979C17.1103 6.85059 16.8771 7.08379 16.8771 7.37148C16.8771 7.65918 17.1103 7.89238 17.3979 7.89238H18.2304C18.5181 7.89238 18.7513 7.65918 18.7513 7.37148C18.7513 7.08379 18.5181 6.85059 18.2304 6.85059ZM16.2161 5.11191C16.3493 5.11191 16.4827 5.06113 16.5845 4.95938L17.1731 4.3707C17.3767 4.16738 17.3767 3.8375 17.1731 3.63418C16.9698 3.43066 16.6397 3.43066 16.4366 3.63418L15.8479 4.22285C15.6444 4.42617 15.6444 4.75605 15.8479 4.95938C15.9495 5.06113 16.0829 5.11191 16.2161 5.11191ZM13.4142 3.98164C13.7019 3.98164 13.9351 3.74844 13.9351 3.46074V2.62832C13.9351 2.34062 13.7019 2.10742 13.4142 2.10742C13.1265 2.10742 12.8933 2.34062 12.8933 2.62832V3.46074C12.8933 3.74844 13.1265 3.98164 13.4142 3.98164ZM10.2655 5.01094C10.3671 5.11269 10.5005 5.16348 10.6339 5.16348C10.7671 5.16348 10.9005 5.11269 11.0022 5.01094C11.2058 4.80762 11.2058 4.47773 11.0022 4.27441L10.4136 3.68574C10.2103 3.48223 9.88018 3.48223 9.67705 3.68574C9.47354 3.88906 9.47354 4.21895 9.67705 4.42227L10.2655 5.01094Z" fill="black"/>
</svg>
