<svg width="20" height="20" viewBox="0 0 20 20" fill="none" xmlns="http://www.w3.org/2000/svg">
<path d="M5 4.375C5.16576 4.375 5.32473 4.44085 5.44194 4.55806C5.55915 4.67527 5.625 4.83424 5.625 5V15C5.625 15.1658 5.55915 15.3247 5.44194 15.4419C5.32473 15.5592 5.16576 15.625 5 15.625C4.83424 15.625 4.67527 15.5592 4.55806 15.4419C4.44085 15.3247 4.375 15.1658 4.375 15V5C4.375 4.83424 4.44085 4.67527 4.55806 4.55806C4.67527 4.44085 4.83424 4.375 5 4.375ZM12.5381 4.97312C12.8119 4.74507 13.145 4.59976 13.4984 4.55421C13.8518 4.50866 14.2109 4.56476 14.5336 4.71593C14.8563 4.8671 15.1292 5.10709 15.3204 5.40778C15.5116 5.70847 15.6131 6.05742 15.6131 6.41375V13.5763C15.6131 13.9326 15.5116 14.2815 15.3204 14.5822C15.1292 14.8829 14.8563 15.1229 14.5336 15.2741C14.2109 15.4252 13.8518 15.4813 13.4984 15.4358C13.145 15.3902 12.8119 15.2449 12.5381 15.0169L8.24063 11.4356C8.02939 11.2597 7.85944 11.0394 7.74281 10.7904C7.62618 10.5415 7.56572 10.2699 7.56572 9.995C7.56572 9.72008 7.62618 9.44852 7.74281 9.19956C7.85944 8.9506 8.02939 8.73034 8.24063 8.55438L12.5381 4.97312ZM14.2188 6.01375C14.1126 5.88649 13.9603 5.80657 13.7953 5.79157C13.6303 5.77657 13.4661 5.82771 13.3387 5.93375L9.04125 9.515C9.01222 9.53919 8.98544 9.56597 8.96125 9.595L8.91437 9.65812C8.83243 9.78639 8.80011 9.94014 8.82347 10.0905C8.84683 10.2409 8.92427 10.3776 9.04125 10.475L13.3387 14.0562C13.43 14.1323 13.541 14.1807 13.6588 14.1959C13.7766 14.2111 13.8963 14.1924 14.0038 14.142C14.1114 14.0917 14.2023 14.0117 14.2661 13.9115C14.3298 13.8113 14.3637 13.695 14.3638 13.5763V6.41375C14.3637 6.26756 14.3124 6.12602 14.2188 6.01375Z" fill="black"/>
</svg>
