<svg width="20" height="20" viewBox="0 0 20 20" fill="none" xmlns="http://www.w3.org/2000/svg">
<path d="M15.8301 1.67383H4.17546C3.71497 1.67383 3.34229 2.04651 3.34229 2.507V17.4924C3.34229 17.9529 3.71497 18.3255 4.17546 18.3255H15.8301C16.2906 18.3255 16.6633 17.9529 16.6633 17.4924V2.507C16.6633 2.04651 16.2906 1.67383 15.8301 1.67383ZM8.50326 10.3314C8.03497 10.7841 7.4496 10.9987 6.74716 10.9714H5.87497V13.7616H5.00863V6.29822H6.91692C7.64277 6.29822 8.20472 6.49334 8.60277 6.88163C9.00472 7.26993 9.2057 7.82602 9.2057 8.54797C9.2057 9.28163 8.97155 9.8748 8.50326 10.3314ZM13.0379 13.7616H12.0759L9.65643 6.29822H10.6184L12.4272 12.1324C12.4877 12.3255 12.5325 12.548 12.5618 12.8016H12.5833C12.6067 12.5792 12.6574 12.3529 12.7355 12.1226L14.5774 6.29822H15.5062L13.0379 13.7616Z" fill="black"/>
<path d="M6.7589 7.14746H5.875V10.125H6.67695C7.20573 10.125 7.60768 9.99429 7.8828 9.73088C8.15793 9.46356 8.29451 9.08307 8.29451 8.58941C8.29451 7.62746 7.78329 7.14746 6.7589 7.14746Z" fill="black"/>
</svg>
