<svg width="20" height="20" viewBox="0 0 20 20" fill="none" xmlns="http://www.w3.org/2000/svg">
<path d="M17.9399 4.91578V5.07887C17.9367 5.08535 17.9311 5.09168 17.9307 5.0983C17.9269 5.16959 17.9266 5.24117 17.92 5.31217C17.9094 5.42646 17.9014 5.54166 17.8802 5.65418C17.8388 5.87361 17.784 6.08988 17.7042 6.29941C17.6192 6.52244 17.5182 6.73732 17.3928 6.94045C17.2258 7.21088 17.0329 7.4607 16.7966 7.67451C16.689 7.77187 16.5799 7.86809 16.4655 7.95719C16.2129 8.15391 15.9329 8.30455 15.6375 8.42543C15.4496 8.50232 15.255 8.55955 15.0561 8.60365C14.8633 8.64643 14.6694 8.6749 14.4719 8.67617C14.2865 8.6774 14.101 8.6793 13.9156 8.67543C13.7902 8.67283 13.689 8.72062 13.6036 8.80639C13.0632 9.34912 12.5246 9.89379 11.9832 10.4356C10.0021 12.4177 8.02018 14.399 6.03833 16.3804C5.981 16.4377 5.9214 16.4928 5.86161 16.5476C5.71374 16.6831 5.5494 16.7945 5.37055 16.8855C5.17243 16.9863 4.96585 17.0593 4.74505 17.0904C4.68852 17.0983 4.63243 17.1092 4.57612 17.1187H4.12522C4.07917 17.1122 4.03266 17.1079 3.98706 17.0989C3.75878 17.0542 3.53968 16.9845 3.33559 16.8694C3.08218 16.7264 2.86391 16.5424 2.68446 16.3145C2.50874 16.0912 2.376 15.8437 2.29325 15.5709C2.22442 15.344 2.19259 15.1117 2.20786 14.8751C2.2154 14.7578 2.22958 14.64 2.25337 14.5251C2.29833 14.3078 2.38056 14.1039 2.49106 13.9107C2.59223 13.7339 2.7061 13.5656 2.84954 13.422C5.37624 10.8928 7.9046 8.36512 10.4326 5.83711C10.4462 5.82353 10.4601 5.81029 10.4733 5.79635C10.5637 5.70031 10.5917 5.5843 10.5812 5.45621C10.5686 5.30363 10.55 5.15125 10.5452 4.9984C10.5417 4.88644 10.5511 4.7734 10.5636 4.6618C10.5816 4.49969 10.5973 4.33615 10.6324 4.17732C10.707 3.84016 10.8273 3.51885 10.9938 3.2148C11.1512 2.9275 11.3435 2.66625 11.5687 2.42998C11.6767 2.31654 11.7923 2.20803 11.9163 2.11264C12.0648 1.99834 12.2239 1.89728 12.382 1.79623C12.5729 1.67435 12.7788 1.581 12.9935 1.51076C13.1712 1.45262 13.3512 1.39705 13.5343 1.36082C13.7204 1.32398 13.9109 1.30418 14.1004 1.29156C14.3108 1.27756 14.5203 1.30844 14.7284 1.3384C14.8479 1.35559 14.9596 1.39762 15.0486 1.48318C15.1923 1.62143 15.2176 1.81232 15.1491 1.99576C15.0961 2.13762 15.003 2.25205 14.8991 2.35771C14.6957 2.56453 14.4894 2.7684 14.2843 2.9735C14.0661 3.19172 13.8475 3.40953 13.6299 3.6283C13.5341 3.72459 13.4424 3.82475 13.3731 3.94266C13.2675 4.12207 13.2269 4.31199 13.2755 4.51863C13.3199 4.70723 13.4241 4.86137 13.556 4.99533C13.8282 5.27185 14.1072 5.54162 14.3825 5.81514C14.4731 5.90512 14.5774 5.97408 14.6928 6.02662C14.823 6.08588 14.962 6.10469 15.1011 6.08336C15.303 6.05242 15.4709 5.94826 15.6143 5.80627C15.8848 5.53857 16.1517 5.26726 16.4224 4.99982C16.6435 4.78133 16.8641 4.56207 17.0926 4.35135C17.2112 4.24189 17.3564 4.18225 17.525 4.21555C17.7093 4.25193 17.857 4.35187 17.9004 4.56225C17.9206 4.66029 17.9207 4.76248 17.9305 4.86271C17.9322 4.88057 17.9366 4.89812 17.9399 4.91578ZM4.30782 13.9145C3.69212 13.9069 3.22917 14.4214 3.19477 14.9452C3.1479 15.6595 3.71788 16.1478 4.28596 16.1576C4.93151 16.1689 5.42159 15.6483 5.4278 15.045C5.43425 14.4209 4.92692 13.9054 4.30782 13.9145Z" fill="black"/>
<path d="M4.1827 1.28027C4.24467 1.29297 4.30775 1.3017 4.36834 1.3192C4.47305 1.34939 4.579 1.37818 4.67941 1.41973C4.91268 1.51621 5.10758 1.66904 5.28379 1.84805C5.3866 1.95254 5.49391 2.05264 5.59918 2.15471C5.70217 2.25455 5.8059 2.35365 5.90807 2.45432C6.18221 2.72447 6.45678 2.99414 6.72906 3.26613C6.94932 3.48615 7.16666 3.70904 7.3849 3.93105C7.52469 4.07324 7.66379 4.21609 7.80314 4.35871C7.9358 4.49449 8.06836 4.63033 8.20094 4.76613C8.33242 4.9008 8.46371 5.03566 8.59539 5.1701C8.76738 5.34568 8.94016 5.52045 9.11162 5.6965C9.17031 5.75678 9.22607 5.81986 9.28559 5.88426L8.69473 6.46184C8.62838 6.38846 8.5627 6.31576 8.49689 6.2432C8.48717 6.23262 8.47719 6.22228 8.46695 6.21219C8.21486 5.96004 7.96242 5.70824 7.71068 5.45574C6.68656 4.42873 5.66313 3.40105 4.63775 2.37529C4.56521 2.30273 4.48912 2.23094 4.38605 2.19693C4.24504 2.15045 4.11469 2.28 4.09607 2.38078C4.074 2.5 4.13713 2.58676 4.21084 2.66398C4.35211 2.81199 4.49928 2.95438 4.64396 3.09908C5.77342 4.22854 6.90268 5.35818 8.03262 6.48711C8.14422 6.59863 8.26008 6.70586 8.37705 6.81805L7.66377 7.50285C7.64143 7.47238 7.62113 7.44375 7.59975 7.41594C7.57678 7.38605 7.55541 7.35437 7.52893 7.32789C6.54463 6.34271 5.55943 5.35844 4.57531 4.37309C4.24461 4.04195 3.9175 3.70723 3.58605 3.37682C3.53455 3.32547 3.47227 3.28207 3.40863 3.24627C3.24164 3.15236 3.07779 3.28846 3.06215 3.44055C3.05518 3.50867 3.09061 3.57152 3.12982 3.62709C3.15338 3.66049 3.1826 3.69035 3.21166 3.71941C4.54089 5.04929 5.87053 6.37876 7.20059 7.70781C7.25291 7.76008 7.31215 7.80543 7.36637 7.85244C7.23746 7.9767 7.11215 8.09877 6.98537 8.2193C6.91299 8.28811 6.83764 8.35377 6.76504 8.42232C6.74219 8.44391 6.72852 8.43609 6.70971 8.41764C6.59826 8.30814 6.48451 8.201 6.374 8.09055C5.15604 6.87324 3.93807 5.65594 2.72156 4.43721C2.59467 4.31006 2.49213 4.16299 2.40313 4.00623C2.29941 3.8235 2.23285 3.62791 2.18936 3.42357C2.18033 3.38109 2.175 3.33783 2.16797 3.29494V2.92078C2.17139 2.89838 2.17391 2.8758 2.17838 2.85361C2.20861 2.70361 2.24674 2.55684 2.309 2.41543C2.39324 2.22408 2.5042 2.05098 2.64256 1.89633C2.77127 1.7524 2.91723 1.62729 3.08482 1.52844C3.26273 1.42354 3.45193 1.34953 3.65436 1.3091C3.70559 1.29887 3.75709 1.28986 3.80846 1.28031C3.93324 1.28027 4.05795 1.28027 4.18268 1.28027H4.1827ZM11.7318 11.7556L12.6155 10.872C12.6284 10.8811 12.6447 10.8898 12.6575 10.9021C12.7768 11.0173 12.8967 11.1318 13.0141 11.2489C13.4781 11.7119 13.9416 12.1753 14.4046 12.6394C14.5476 12.7828 14.6876 12.9293 14.8298 13.0735C14.9179 13.1628 15.0151 13.241 15.136 13.2799C15.198 13.2998 15.2635 13.3119 15.3283 13.3192C15.5135 13.3399 15.6834 13.4026 15.8448 13.4935C15.9971 13.5793 16.1253 13.6946 16.2393 13.8241C16.3229 13.9192 16.3964 14.0239 16.4685 14.1283C16.6464 14.386 16.825 14.6433 16.9958 14.9057C17.1869 15.1993 17.3702 15.498 17.5557 15.7952C17.6287 15.912 17.7024 16.0285 17.7691 16.1489C17.8694 16.3301 17.9029 16.5348 17.7747 16.7085C17.6888 16.8249 17.5734 16.9125 17.44 16.969C17.3622 17.0018 17.2794 16.9777 17.1995 16.9602C17.0451 16.9262 16.9167 16.8353 16.7783 16.7666C16.6733 16.7145 16.5721 16.6543 16.4707 16.5949C16.3195 16.5065 16.1674 16.4191 16.0198 16.3248C15.8496 16.2161 15.6814 16.104 15.517 15.9869C15.3483 15.8669 15.1829 15.7424 15.0209 15.6136C14.8828 15.5036 14.7456 15.3909 14.6189 15.2681C14.4029 15.0589 14.2691 14.8002 14.1983 14.5086C14.1763 14.4178 14.1573 14.3262 14.1322 14.2363C14.1061 14.1432 14.0479 14.0677 13.9811 14.0007C13.2447 13.263 12.5074 12.5262 11.7702 11.7893C11.758 11.777 11.7442 11.7664 11.7318 11.7556Z" fill="black"/>
</svg>
