<svg width="20" height="20" viewBox="0 0 20 20" fill="none" xmlns="http://www.w3.org/2000/svg">
<path d="M17.4998 3.33301H2.49984C2.0396 3.33301 1.6665 3.7061 1.6665 4.16634V12.4997C1.6665 12.9599 2.0396 13.333 2.49984 13.333H17.4998C17.9601 13.333 18.3332 12.9599 18.3332 12.4997V4.16634C18.3332 3.7061 17.9601 3.33301 17.4998 3.33301Z" stroke="#333333" stroke-width="1.25"/>
<path d="M10 17.083V13.333" stroke="#333333" stroke-width="1.25" stroke-linecap="round" stroke-linejoin="round"/>
<path d="M12.9168 17.083H7.0835" stroke="#333333" stroke-width="1.25" stroke-linecap="round" stroke-linejoin="round"/>
<rect x="3" y="5" width="4" height="3" fill="#333333"/>
<rect x="3" y="9" width="4" height="3" fill="#333333"/>
<rect x="8" y="5" width="4" height="3" fill="#333333"/>
<rect x="8" y="9" width="4" height="3" fill="#333333"/>
<rect x="13" y="5" width="4" height="3" fill="#333333"/>
<rect x="13" y="9" width="4" height="3" fill="#333333"/>
</svg>
