<svg width="20" height="20" viewBox="0 0 20 20" fill="none" xmlns="http://www.w3.org/2000/svg">
<path d="M15.8335 1.66699H4.16683C3.70659 1.66699 3.3335 2.04009 3.3335 2.50033V17.5003C3.3335 17.9606 3.70659 18.3337 4.16683 18.3337H15.8335C16.2937 18.3337 16.6668 17.9606 16.6668 17.5003V2.50033C16.6668 2.04009 16.2937 1.66699 15.8335 1.66699Z" stroke="#333333" stroke-width="1.25" stroke-linejoin="round"/>
<path d="M8.75 5.83301H13.75" stroke="#333333" stroke-width="1.25" stroke-linecap="round" stroke-linejoin="round"/>
<path d="M8.75 10H13.75" stroke="#333333" stroke-width="1.25" stroke-linecap="round" stroke-linejoin="round"/>
<path d="M8.75 14.167H13.75" stroke="#333333" stroke-width="1.25" stroke-linecap="round" stroke-linejoin="round"/>
<path fill-rule="evenodd" clip-rule="evenodd" d="M6.24984 6.66667C6.71009 6.66667 7.08317 6.29358 7.08317 5.83333C7.08317 5.37308 6.71009 5 6.24984 5C5.78959 5 5.4165 5.37308 5.4165 5.83333C5.4165 6.29358 5.78959 6.66667 6.24984 6.66667Z" fill="#333333"/>
<path fill-rule="evenodd" clip-rule="evenodd" d="M6.24984 10.8337C6.71009 10.8337 7.08317 10.4606 7.08317 10.0003C7.08317 9.54008 6.71009 9.16699 6.24984 9.16699C5.78959 9.16699 5.4165 9.54008 5.4165 10.0003C5.4165 10.4606 5.78959 10.8337 6.24984 10.8337Z" fill="#333333"/>
<path fill-rule="evenodd" clip-rule="evenodd" d="M6.24984 14.9997C6.71009 14.9997 7.08317 14.6266 7.08317 14.1663C7.08317 13.7061 6.71009 13.333 6.24984 13.333C5.78959 13.333 5.4165 13.7061 5.4165 14.1663C5.4165 14.6266 5.78959 14.9997 6.24984 14.9997Z" fill="#333333"/>
</svg>
